<svg width="769" height="689" viewBox="0 0 769 689" fill="none" xmlns="http://www.w3.org/2000/svg">
<path d="M400.937 52.8427C417.854 63.0888 431.353 78.1213 439.727 96.0393C448.101 113.957 450.973 133.956 447.981 153.507C444.989 173.057 436.266 191.281 422.917 205.874C409.567 220.468 392.19 230.775 372.983 235.492L349.132 138.378L400.937 52.8427Z" fill="#3D405B"/>
<path d="M369.718 237.021C351.284 241.548 331.943 240.736 313.954 234.678C295.966 228.62 280.072 217.568 268.132 202.813C256.192 188.058 248.697 170.209 246.525 151.353C244.352 132.496 247.591 113.411 255.863 96.3266L345.867 139.907L369.718 237.021Z" fill="#F2CC8F"/>
<path d="M257.628 93.3288C263.701 80.9381 272.273 69.9384 282.804 61.0218C293.335 52.1052 305.598 45.4647 318.82 41.518C332.043 37.5713 345.939 36.4038 359.635 38.0891C373.331 39.7744 386.529 44.276 398.401 51.3106L347.422 137.341L257.628 93.3288Z" fill="#81B29A"/>
<g filter="url(#filter0_d_181_109)">
<rect x="410.188" y="153.238" width="353" height="236" rx="40" transform="rotate(19.3903 410.188 153.238)" fill="#F2CC8F"/>
<rect x="474.514" y="259.629" width="35" height="116" transform="rotate(19.3903 474.514 259.629)" fill="#3D405B"/>
<rect x="530.916" y="310.225" width="35" height="88" transform="rotate(19.3903 530.916 310.225)" fill="#E07A5F"/>
<rect x="615.205" y="281.584" width="35" height="143" transform="rotate(19.3903 615.205 281.584)" fill="#81B29A"/>
<path d="M448.026 208.895C447.668 208.148 446.772 207.833 446.025 208.191L433.852 214.026C433.105 214.384 432.789 215.28 433.147 216.027C433.505 216.774 434.401 217.089 435.148 216.731L445.969 211.544L451.156 222.365C451.514 223.112 452.41 223.428 453.157 223.07C453.904 222.712 454.22 221.816 453.862 221.069L448.026 208.895ZM396.775 355.832L448.089 210.041L445.259 209.045L393.945 354.836L396.775 355.832Z" fill="#5A5A5A"/>
<path d="M641.884 442.593C642.631 442.235 642.946 441.339 642.588 440.592L636.753 428.419C636.395 427.672 635.499 427.356 634.752 427.714C634.005 428.072 633.689 428.968 634.047 429.715L639.234 440.536L628.413 445.723C627.666 446.081 627.351 446.977 627.709 447.724C628.067 448.471 628.963 448.787 629.71 448.429L641.884 442.593ZM394.013 355.817L640.737 442.656L641.733 439.826L395.009 352.987L394.013 355.817Z" fill="#5A5A5A"/>
</g>
<g filter="url(#filter1_d_181_109)">
<rect y="273.561" width="365" height="399" rx="40" transform="rotate(-13.9084 0 273.561)" fill="#F2CC8F"/>
<path d="M9.61482 312.388C4.3047 290.944 17.3836 269.256 38.8272 263.946L315.471 195.44C336.915 190.13 358.603 203.209 363.913 224.653L409.824 410.053L55.5256 497.788L9.61482 312.388Z" fill="#3D405B"/>
<path d="M62.3752 336.839L48.7424 317.863L49.3935 318.229L46.0799 318.028L45.9261 317.407L52.6044 315.753L63.8927 331.518L63.5043 331.68L64.5085 323.354L64.9165 324.869L58.0068 315.47L58.9679 316.023L55.181 315.774L55.0272 315.153L61.8297 313.469L65.8376 319.003L65.4412 319.266L66.2148 313.471L66.6712 314.116L64.4685 313.474L64.3147 312.853L70.1232 311.415L70.2771 312.036L67.3857 313.939L68.0317 313.087L66.8648 321.288L66.5959 320.068L72.9787 329.07L72.6294 329.124L75.2064 311.574L75.5703 311.978L72.4049 311.443L72.2665 310.884L79.5039 309.092L79.6577 309.713L76.5024 311.615L77.0704 310.98L73.6749 333.612L71.6937 334.531L65.3576 325.452L66.0646 325.112L64.6048 335.858L62.3752 336.839ZM82.8432 331.342L82.6894 330.72L85.169 329.018L85.0051 329.422L79.7823 308.331L80.1388 308.572L77.0805 308.736L76.8959 307.99L83.3218 304.652L83.7245 305.08L84.2162 307.332L86.216 315.408L86.061 315.314C86.585 314.679 87.1813 314.114 87.8499 313.618C88.534 313.097 89.1971 312.757 89.839 312.598C91.0194 312.306 92.1138 312.244 93.1224 312.412C94.131 312.58 94.9813 312.951 95.6733 313.527C96.3603 314.082 96.8191 314.826 97.0498 315.758L99.542 325.822L99.2089 325.542L102.196 325.89L102.35 326.511L93.3731 328.734L93.1885 327.989L95.2951 326.511L95.1312 326.914L92.8544 317.72C92.5673 316.56 92.0855 315.679 91.409 315.078C90.7481 314.45 90.0346 314.231 89.2684 314.421C88.7921 314.539 88.2947 314.838 87.7762 315.318C87.2785 315.793 86.8375 316.32 86.4533 316.898L86.4776 316.464L89.4159 328.329L89.0828 328.049L91.6355 328.373L91.8201 329.119L82.8432 331.342ZM107.933 325.656C106.732 325.954 105.686 325.949 104.797 325.641C103.929 325.329 103.223 324.833 102.682 324.154C102.161 323.47 101.795 322.703 101.585 321.854C101.426 321.213 101.531 320.571 101.9 319.93C102.268 319.29 102.831 318.678 103.588 318.095C104.365 317.507 105.277 316.973 106.323 316.494C107.364 315.995 108.478 315.565 109.663 315.206L109.476 315.516L108.777 312.689C108.546 311.757 108.152 311.053 107.594 310.575C107.031 310.077 106.47 309.898 105.911 310.036C105.476 310.144 105.072 310.376 104.699 310.732C104.325 311.088 104.055 311.507 103.889 311.987C103.722 312.468 103.7 312.957 103.823 313.454C103.88 313.682 103.928 313.879 103.969 314.044C104.031 314.205 104.075 314.337 104.1 314.44L100.643 316.187C100.581 316.026 100.519 315.822 100.458 315.573C100.396 315.325 100.332 315.066 100.266 314.797C100.045 313.906 100.132 313.06 100.527 312.259C100.938 311.432 101.615 310.704 102.558 310.075C103.517 309.42 104.7 308.918 106.108 308.57C107.226 308.293 108.261 308.212 109.213 308.328C110.186 308.439 110.992 308.723 111.633 309.18C112.273 309.636 112.688 310.248 112.878 311.014L115.493 321.575L115.145 321.365L118.227 321.03L118.434 321.869L112.064 324.633L111.638 324.376L111.184 322.411L111.37 322.497C110.934 323.221 110.418 323.887 109.821 324.496C109.246 325.1 108.616 325.487 107.933 325.656ZM108.994 323.02C109.346 322.932 109.688 322.716 110.02 322.37C110.367 321.998 110.692 321.533 110.993 320.975L110.946 321.448L109.661 316.261L110.079 316.619C108.516 317.05 107.348 317.526 106.576 318.047C105.799 318.547 105.51 319.201 105.71 320.009C105.864 320.63 106.114 321.195 106.459 321.702C106.805 322.21 107.194 322.586 107.629 322.83C108.063 323.074 108.518 323.138 108.994 323.02ZM124.408 321.609C123.352 321.871 122.392 321.768 121.529 321.3C120.666 320.833 120.096 320.04 119.819 318.921L116.973 307.429L117.322 307.639L114.247 308.4L113.971 307.018L116.984 306.272L116.773 306.621L115.881 303.018L119.737 300.085L121.091 305.552L120.742 305.341L125.495 304.165L125.833 305.531L121.081 306.708L121.291 306.359L123.868 316.765C124.047 317.49 124.279 318.026 124.563 318.373C124.846 318.72 125.131 318.936 125.415 319.019C125.72 319.098 125.976 319.111 126.183 319.06C126.659 318.942 127.126 318.695 127.582 318.318C128.038 317.941 128.494 317.433 128.951 316.792L129.741 317.453C129.077 318.497 128.265 319.39 127.306 320.133C126.347 320.876 125.381 321.368 124.408 321.609ZM143.798 316.775C142.846 317.011 141.86 317.156 140.84 317.21C139.847 317.281 138.908 317.26 138.023 317.15C137.159 317.034 136.43 316.841 135.836 316.571L135.062 311.85L136.74 311.435C137.089 312.491 137.594 313.377 138.255 314.092C138.936 314.803 139.719 315.301 140.603 315.588C141.503 315.849 142.47 315.851 143.506 315.594C144.603 315.323 145.412 314.771 145.931 313.939C146.466 313.081 146.603 312.124 146.341 311.068C146.197 310.488 145.808 309.98 145.172 309.544C144.532 309.088 143.736 308.669 142.785 308.289C141.854 307.905 140.867 307.512 139.823 307.111C138.654 306.653 137.504 306.18 136.372 305.691C135.261 305.197 134.297 304.633 133.481 304C132.686 303.362 132.18 302.608 131.965 301.738C131.683 300.599 131.755 299.515 132.182 298.487C132.629 297.453 133.361 296.547 134.376 295.767C135.413 294.983 136.677 294.407 138.168 294.037C139.037 293.822 139.917 293.692 140.807 293.648C141.697 293.603 142.533 293.649 143.314 293.785C144.09 293.901 144.741 294.091 145.268 294.356L146.322 298.611L144.645 299.027C144.316 298.053 143.842 297.248 143.222 296.61C142.598 295.951 141.882 295.502 141.075 295.262C140.264 295.002 139.392 294.987 138.46 295.218C137.528 295.449 136.836 295.939 136.384 296.688C135.953 297.432 135.856 298.28 136.092 299.233C136.261 299.916 136.671 300.507 137.322 301.005C137.967 301.483 138.755 301.914 139.686 302.299C140.632 302.658 141.614 303.03 142.633 303.415C143.724 303.826 144.788 304.266 145.827 304.734C146.887 305.197 147.791 305.742 148.54 306.37C149.31 306.992 149.807 307.759 150.033 308.67C150.33 309.871 150.263 311.02 149.831 312.116C149.399 313.212 148.66 314.175 147.613 315.006C146.581 315.811 145.31 316.4 143.798 316.775ZM161.275 312.447C159.66 312.847 158.131 312.841 156.689 312.429C155.267 312.012 154.047 311.259 153.03 310.17C152.029 309.055 151.323 307.67 150.913 306.013C150.523 304.439 150.522 302.967 150.908 301.597C151.309 300.201 152.046 299.007 153.12 298.016C154.214 297.02 155.568 296.322 157.183 295.922C158.757 295.532 160.237 295.517 161.623 295.877C163.029 296.232 164.218 296.905 165.189 297.896C166.18 298.881 166.863 300.129 167.237 301.641C167.663 303.36 167.687 304.969 167.311 306.469C166.956 307.963 166.25 309.237 165.192 310.29C164.155 311.338 162.849 312.057 161.275 312.447ZM161.566 311.089C162.435 310.874 162.965 310.127 163.154 308.85C163.364 307.567 163.21 305.88 162.692 303.788C162.102 301.407 161.294 299.651 160.267 298.521C159.255 297.365 158.128 296.941 156.886 297.248C155.995 297.469 155.422 298.171 155.166 299.356C154.904 300.519 155.01 302.054 155.481 303.959C156.117 306.526 156.964 308.438 158.022 309.692C159.101 310.941 160.282 311.407 161.566 311.089ZM178.338 308.189C176.909 308.542 175.564 308.524 174.303 308.133C173.062 307.737 171.984 307.026 171.071 305.999C170.152 304.952 169.498 303.641 169.108 302.068C168.708 300.452 168.663 298.936 168.971 297.519C169.274 296.082 169.893 294.852 170.826 293.829C171.776 292.781 172.978 292.044 174.432 291.618C174.655 291.54 175.095 291.453 175.752 291.357C176.41 291.26 177.186 291.155 178.082 291.044C178.444 290.998 178.778 290.97 179.083 290.96C179.404 290.925 179.634 290.879 179.774 290.822L181.035 295.916L179.607 296.27C179.365 295.473 178.968 294.802 178.416 294.257C177.879 293.687 177.264 293.29 176.571 293.066C175.873 292.821 175.141 292.794 174.375 292.983C173.863 293.132 173.466 293.527 173.185 294.168C172.925 294.804 172.783 295.608 172.761 296.581C172.758 297.548 172.906 298.633 173.203 299.834C173.552 301.242 174.059 302.446 174.724 303.446C175.39 304.446 176.13 305.175 176.947 305.632C177.763 306.089 178.606 306.21 179.476 305.995C180.015 305.861 180.597 305.552 181.225 305.067C181.852 304.582 182.373 304.025 182.788 303.394L183.827 304.126C183.369 305.031 182.63 305.862 181.609 306.62C180.588 307.379 179.498 307.901 178.338 308.189ZM185.208 305.993L185.054 305.372L187.565 303.662L187.493 304.438L184.317 291.609L184.765 292.224L181.707 292.387L181.523 291.642L187.948 288.304L188.351 288.731L188.827 290.921L191.904 303.346L191.479 302.693L194.497 303.033L194.651 303.655L185.208 305.993ZM185.383 286.73C184.658 286.91 183.983 286.802 183.358 286.407C182.733 286.013 182.333 285.463 182.159 284.759C181.979 284.035 182.074 283.352 182.443 282.711C182.812 282.07 183.358 281.66 184.083 281.481C184.787 281.306 185.441 281.419 186.046 281.819C186.671 282.213 187.071 282.763 187.245 283.467C187.425 284.192 187.33 284.874 186.961 285.515C186.613 286.151 186.087 286.556 185.383 286.73ZM200.227 302.801C199.026 303.098 197.981 303.094 197.092 302.786C196.223 302.474 195.518 301.978 194.977 301.299C194.455 300.615 194.09 299.848 193.88 298.999C193.721 298.358 193.826 297.716 194.194 297.075C194.563 296.435 195.126 295.823 195.883 295.24C196.66 294.652 197.572 294.118 198.618 293.639C199.659 293.14 200.773 292.71 201.958 292.351L201.771 292.661L201.071 289.834C200.841 288.902 200.446 288.198 199.889 287.72C199.326 287.222 198.765 287.043 198.206 287.181C197.771 287.289 197.367 287.521 196.993 287.877C196.62 288.233 196.35 288.652 196.183 289.132C196.017 289.613 195.995 290.102 196.118 290.599C196.174 290.827 196.223 291.024 196.264 291.189C196.326 291.35 196.37 291.482 196.395 291.585L192.938 293.332C192.876 293.171 192.814 292.967 192.753 292.718C192.691 292.47 192.627 292.211 192.56 291.942C192.34 291.051 192.427 290.205 192.822 289.404C193.233 288.577 193.91 287.849 194.853 287.22C195.811 286.565 196.995 286.063 198.403 285.715C199.521 285.438 200.556 285.357 201.508 285.473C202.48 285.584 203.287 285.868 203.927 286.325C204.568 286.781 204.983 287.393 205.173 288.159L207.788 298.72L207.439 298.51L210.521 298.175L210.729 299.014L204.359 301.778L203.932 301.521L203.479 299.556L203.665 299.642C203.229 300.366 202.712 301.032 202.116 301.641C201.54 302.245 200.911 302.632 200.227 302.801ZM201.289 300.165C201.641 300.077 201.983 299.861 202.315 299.515C202.662 299.143 202.987 298.678 203.288 298.12L203.24 298.593L201.956 293.406L202.374 293.764C200.811 294.195 199.643 294.671 198.871 295.192C198.093 295.692 197.805 296.346 198.005 297.154C198.159 297.775 198.408 298.34 198.754 298.847C199.099 299.355 199.489 299.731 199.923 299.975C200.357 300.219 200.813 300.283 201.289 300.165ZM210.357 299.765L210.203 299.144L212.683 297.442L212.519 297.845L207.296 276.754L207.652 276.996L204.594 277.16L204.409 276.414L210.835 273.076L211.238 273.503L211.73 275.755L216.929 296.753L216.596 296.473L219.615 296.813L219.768 297.435L210.357 299.765ZM224.389 296.29L224.236 295.669L226.894 294.022L222.278 275.385L219.159 275.168L219.005 274.547L229.38 271.978L229.534 272.599L226.883 274.278L231.491 292.884L234.61 293.1L234.764 293.721L224.389 296.29ZM241.123 292.74C239.86 293.053 238.667 293.161 237.544 293.066C236.443 292.965 235.649 292.689 235.164 292.238L234.512 288.806L235.723 288.506L236.62 290.13C237.006 290.803 237.567 291.291 238.301 291.593C239.055 291.889 239.847 291.935 240.675 291.73C241.545 291.515 242.206 291.076 242.657 290.415C243.104 289.733 243.232 289.009 243.042 288.243C242.924 287.767 242.666 287.435 242.268 287.248C241.891 287.055 241.418 286.92 240.849 286.841C240.28 286.762 239.678 286.68 239.041 286.596C238.359 286.502 237.655 286.368 236.931 286.196C236.228 286.018 235.561 285.766 234.93 285.438C234.3 285.111 233.737 284.657 233.242 284.076C232.767 283.491 232.417 282.742 232.191 281.831C231.981 280.982 232.068 280.18 232.453 279.426C232.832 278.65 233.452 277.959 234.312 277.35C235.172 276.741 236.193 276.291 237.373 275.999C238.181 275.799 239.073 275.72 240.051 275.764C241.045 275.782 241.919 275.895 242.674 276.104L243.574 279.738L242.362 280.038L241.427 278.39C241.081 277.794 240.57 277.372 239.893 277.122C239.236 276.867 238.546 276.829 237.821 277.008C237.055 277.198 236.472 277.595 236.072 278.2C235.688 278.778 235.58 279.409 235.75 280.093C235.862 280.548 236.11 280.883 236.492 281.096C236.87 281.288 237.332 281.426 237.881 281.51C238.45 281.589 239.032 281.676 239.626 281.77C240.516 281.901 241.413 282.108 242.318 282.389C243.244 282.666 244.063 283.133 244.775 283.792C245.483 284.43 245.988 285.36 246.29 286.581C246.511 287.472 246.429 288.338 246.044 289.181C245.675 289.998 245.062 290.721 244.207 291.35C243.352 291.979 242.324 292.443 241.123 292.74ZM254.971 289.311C253.708 289.624 252.515 289.732 251.392 289.637C250.291 289.536 249.497 289.26 249.012 288.809L248.36 285.377L249.571 285.077L250.468 286.701C250.854 287.374 251.415 287.862 252.149 288.164C252.903 288.46 253.695 288.506 254.523 288.301C255.393 288.085 256.054 287.647 256.505 286.986C256.952 286.304 257.08 285.58 256.89 284.814C256.772 284.337 256.514 284.006 256.116 283.818C255.739 283.626 255.266 283.491 254.697 283.412C254.128 283.333 253.525 283.251 252.889 283.167C252.206 283.072 251.503 282.939 250.779 282.767C250.076 282.589 249.409 282.337 248.778 282.009C248.148 281.682 247.585 281.228 247.09 280.647C246.615 280.062 246.265 279.313 246.039 278.402C245.829 277.553 245.916 276.751 246.301 275.997C246.68 275.221 247.3 274.529 248.16 273.921C249.02 273.312 250.041 272.862 251.221 272.569C252.029 272.369 252.921 272.291 253.899 272.335C254.892 272.352 255.767 272.466 256.522 272.674L257.422 276.309L256.21 276.609L255.275 274.961C254.929 274.365 254.418 273.942 253.741 273.693C253.084 273.438 252.394 273.4 251.669 273.579C250.903 273.769 250.32 274.166 249.92 274.771C249.536 275.349 249.428 275.98 249.598 276.664C249.71 277.119 249.958 277.453 250.34 277.666C250.718 277.859 251.18 277.997 251.729 278.081C252.298 278.16 252.88 278.246 253.474 278.341C254.364 278.472 255.261 278.679 256.166 278.96C257.092 279.236 257.911 279.704 258.623 280.363C259.331 281.001 259.836 281.93 260.138 283.152C260.359 284.043 260.277 284.909 259.892 285.752C259.523 286.568 258.91 287.291 258.055 287.921C257.2 288.55 256.172 289.013 254.971 289.311ZM269.681 285.635C268.584 285.907 267.551 285.954 266.584 285.776C265.612 285.577 264.79 285.187 264.119 284.606C263.447 284.025 262.999 283.279 262.773 282.368L260.281 272.304L260.614 272.584L257.596 272.243L257.434 271.591L264.33 269.884L266.938 280.414C267.22 281.552 267.676 282.418 268.305 283.009C268.956 283.595 269.654 283.796 270.4 283.611C270.876 283.493 271.35 283.145 271.822 282.567C272.31 281.962 272.731 281.309 273.084 280.606L273.06 281.04L270.283 269.827L270.616 270.107L268.001 269.799L267.817 269.053L274.34 267.438L277.732 281.136L277.414 280.918L280.053 280.66L280.276 281.561L274.457 284.42L274.054 284.124L273.383 282.081L273.569 282.167C273.299 282.673 272.959 283.164 272.549 283.639C272.14 284.114 271.683 284.535 271.181 284.901C270.699 285.262 270.199 285.507 269.681 285.635ZM288.852 280.855C287.382 281.219 285.983 281.203 284.654 280.807C283.32 280.39 282.16 279.655 281.174 278.602C280.209 277.545 279.534 276.239 279.149 274.686C278.734 273.009 278.691 271.459 279.02 270.037C279.37 268.61 280.048 267.398 281.054 266.402C282.075 265.379 283.394 264.668 285.009 264.268C286.231 263.966 287.413 263.948 288.556 264.214C289.714 264.455 290.717 264.998 291.563 265.843C292.41 266.688 293.018 267.856 293.387 269.347C293.423 269.492 293.464 269.658 293.51 269.844C293.556 270.031 293.59 270.209 293.61 270.38L283.111 272.98L283.454 272.5C283.813 273.949 284.296 275.192 284.904 276.228C285.513 277.264 286.207 278.026 286.987 278.515C287.762 278.982 288.554 279.116 289.361 278.916C290.148 278.721 290.956 278.301 291.785 277.656C292.615 277.011 293.271 276.288 293.754 275.487L294.862 276.235C294.529 276.933 294.054 277.589 293.437 278.203C292.82 278.817 292.108 279.356 291.299 279.82C290.517 280.3 289.701 280.645 288.852 280.855ZM283.3 272.01L282.726 271.691L289.156 269.967L288.798 270.517C288.449 269.285 288.021 268.314 287.516 267.604C287.01 266.894 286.484 266.409 285.936 266.149C285.388 265.889 284.866 265.82 284.369 265.943C283.934 266.051 283.579 266.348 283.303 266.834C283.044 267.293 282.9 267.955 282.872 268.819C282.86 269.658 283.002 270.721 283.3 272.01ZM70.0724 374.179C69.1199 374.415 68.1339 374.56 67.1145 374.615C66.1209 374.685 65.1818 374.665 64.2973 374.554C63.4335 374.439 62.7044 374.246 62.1099 373.975L61.3366 369.255L63.0139 368.839C63.3634 369.896 63.8685 370.782 64.5292 371.497C65.2106 372.207 65.9934 372.706 66.8775 372.992C67.7772 373.253 68.7448 373.255 69.7801 372.999C70.8777 372.727 71.6861 372.175 72.2053 371.343C72.7402 370.486 72.8768 369.529 72.6153 368.473C72.4717 367.893 72.0822 367.385 71.4468 366.949C70.8062 366.492 70.0103 366.074 69.0591 365.694C68.1287 365.309 67.1413 364.916 66.097 364.515C64.9287 364.058 63.7785 363.584 62.6465 363.095C61.5351 362.601 60.5714 362.038 59.7553 361.405C58.9599 360.766 58.4545 360.012 58.2392 359.143C57.9571 358.004 58.0294 356.92 58.456 355.891C58.9033 354.857 59.6348 353.951 60.6507 353.172C61.6873 352.388 62.951 351.811 64.442 351.442C65.3117 351.227 66.1916 351.097 67.0817 351.052C67.9717 351.007 68.8072 351.053 69.5882 351.19C70.3641 351.305 71.0156 351.495 71.5427 351.76L72.5965 356.016L70.9192 356.431C70.5902 355.458 70.116 354.652 69.4965 354.014C68.8719 353.356 68.1563 352.907 67.3497 352.667C66.5379 352.406 65.6661 352.392 64.7343 352.622C63.8024 352.853 63.1106 353.343 62.6588 354.092C62.2277 354.836 62.1301 355.685 62.3659 356.637C62.5352 357.321 62.9452 357.911 63.596 358.41C64.2417 358.887 65.0298 359.318 65.9603 359.703C66.9063 360.062 67.8886 360.434 68.907 360.82C69.9978 361.231 71.0627 361.67 72.1017 362.138C73.1613 362.601 74.0656 363.147 74.8144 363.774C75.584 364.397 76.0816 365.164 76.3072 366.075C76.6046 367.276 76.5374 368.425 76.1055 369.52C75.6736 370.616 74.9341 371.58 73.8871 372.41C72.8557 373.215 71.5841 373.805 70.0724 374.179ZM78.3877 371.593L78.2339 370.971L80.7135 369.269L80.5496 369.673L75.3269 348.582L75.6833 348.823L72.6251 348.987L72.4405 348.242L78.8664 344.903L79.269 345.331L79.7607 347.583L81.7606 355.659L81.6056 355.565C82.1296 354.93 82.7259 354.365 83.3944 353.87C84.0786 353.348 84.7416 353.008 85.3836 352.85C86.5639 352.557 87.6584 352.495 88.6669 352.663C89.6755 352.831 90.5258 353.202 91.2179 353.778C91.9048 354.333 92.3636 355.077 92.5944 356.009L95.0865 366.073L94.7534 365.793L97.7407 366.141L97.8946 366.762L88.9177 368.985L88.7331 368.24L90.8397 366.762L90.6758 367.165L88.399 357.971C88.1118 356.811 87.63 355.931 86.9535 355.329C86.2927 354.701 85.5791 354.482 84.8129 354.672C84.3366 354.79 83.8393 355.089 83.3208 355.569C82.823 356.044 82.382 356.571 81.9979 357.149L82.0221 356.715L84.9604 368.58L84.6273 368.3L87.18 368.624L87.3646 369.37L78.3877 371.593ZM106.524 365.153C104.909 365.553 103.38 365.547 101.937 365.135C100.515 364.718 99.296 363.965 98.2792 362.876C97.2779 361.761 96.5721 360.375 96.1619 358.719C95.7721 357.145 95.7703 355.673 96.1562 354.303C96.5577 352.907 97.2951 351.713 98.3684 350.722C99.4623 349.726 100.817 349.028 102.432 348.628C104.006 348.238 105.486 348.223 106.872 348.583C108.278 348.938 109.467 349.611 110.437 350.601C111.428 351.587 112.111 352.835 112.486 354.347C112.911 356.066 112.936 357.675 112.56 359.174C112.205 360.669 111.498 361.943 110.441 362.996C109.403 364.044 108.098 364.763 106.524 365.153ZM106.814 363.795C107.684 363.58 108.214 362.833 108.403 361.556C108.612 360.273 108.458 358.586 107.941 356.494C107.351 354.113 106.542 352.357 105.515 351.227C104.504 350.071 103.377 349.647 102.134 349.954C101.244 350.175 100.67 350.877 100.414 352.061C100.153 353.225 100.258 354.759 100.73 356.665C101.366 359.232 102.213 361.143 103.271 362.398C104.349 363.647 105.53 364.113 106.814 363.795ZM123.074 361.087C121.977 361.359 120.944 361.406 119.977 361.228C119.005 361.029 118.183 360.639 117.512 360.058C116.84 359.477 116.392 358.731 116.166 357.82L113.674 347.756L114.007 348.036L110.989 347.696L110.827 347.043L117.723 345.336L120.331 355.866C120.613 357.005 121.069 357.87 121.699 358.461C122.349 359.047 123.047 359.248 123.793 359.063C124.269 358.945 124.743 358.597 125.215 358.019C125.703 357.414 126.124 356.761 126.477 356.058L126.453 356.492L123.676 345.279L124.009 345.559L121.394 345.251L121.21 344.505L127.733 342.89L131.125 356.588L130.807 356.37L133.446 356.112L133.67 357.013L127.85 359.872L127.447 359.576L126.776 357.533L126.963 357.619C126.692 358.125 126.352 358.616 125.943 359.091C125.533 359.566 125.076 359.987 124.574 360.353C124.092 360.714 123.592 360.959 123.074 361.087ZM133.673 357.902L133.519 357.281L135.999 355.579L135.835 355.982L130.612 334.891L130.968 335.133L127.91 335.297L127.726 334.551L134.152 331.213L134.554 331.641L135.046 333.892L140.246 354.89L139.912 354.61L142.931 354.95L143.085 355.572L133.673 357.902ZM155.029 353.009L154.65 352.543L154.125 351.09L154.374 351.161C153.87 351.879 153.274 352.532 152.584 353.12C151.895 353.709 151.146 354.103 150.339 354.303C149.075 354.616 147.844 354.569 146.645 354.163C145.466 353.751 144.425 353.009 143.522 351.936C142.614 350.842 141.952 349.457 141.536 347.779C141.136 346.164 141.135 344.648 141.531 343.231C141.943 341.789 142.691 340.549 143.775 339.511C144.853 338.453 146.221 337.718 147.877 337.308C148.83 337.072 149.805 337.018 150.804 337.144L150.695 337.369L148.91 330.162L149.259 330.373L146.201 330.537L146.016 329.791L152.38 326.468L152.782 326.896L153.143 328.884L158.35 349.912L158.025 349.663L160.369 349.544L160.546 350.259L155.029 353.009ZM151.538 352.226C151.911 352.133 152.305 351.86 152.72 351.405C153.135 350.951 153.545 350.388 153.95 349.716L153.871 350.197L150.979 338.518L151.289 338.837C150.658 338.686 150.006 338.627 149.333 338.662C148.676 338.671 148.068 338.744 147.509 338.883C146.991 339.011 146.559 339.393 146.21 340.029C145.862 340.664 145.651 341.497 145.576 342.526C145.517 343.53 145.644 344.663 145.957 345.927C146.336 347.459 146.838 348.73 147.462 349.741C148.101 350.725 148.78 351.425 149.498 351.841C150.216 352.256 150.896 352.385 151.538 352.226ZM165.406 350.044L165.283 349.547L168.027 347.582L167.871 348.016L163.148 328.944L163.489 329.256L160.145 328.798L160.022 328.301L171.204 325.532C172.55 325.199 173.784 325.124 174.906 325.307C176.05 325.486 177.006 325.886 177.775 326.509C178.54 327.111 179.045 327.909 179.291 328.903C179.568 330.021 179.475 331.154 179.012 332.302C178.565 333.423 177.823 334.376 176.786 335.16L176.716 335.013C177.818 335.026 178.809 335.209 179.688 335.563C180.582 335.891 181.326 336.366 181.92 336.988C182.529 337.584 182.934 338.286 183.134 339.094C183.436 340.316 183.299 341.493 182.722 342.624C182.145 343.756 181.186 344.763 179.844 345.645C178.522 346.521 176.899 347.198 174.973 347.675L165.406 350.044ZM172.476 346.909L172.166 346.722L175.707 345.845C176.866 345.558 177.698 344.967 178.202 344.073C178.721 343.154 178.837 342.114 178.55 340.954C178.181 339.463 177.449 338.37 176.353 337.674C175.274 336.952 174.04 336.763 172.653 337.107L169.95 337.776L170.137 337.466L172.476 346.909ZM169.906 336.534L169.596 336.347L173.137 335.471C173.883 335.286 174.407 334.783 174.709 333.961C175.031 333.133 175.057 332.171 174.785 331.074C174.457 329.748 173.869 328.751 173.022 328.082C172.191 327.386 171.278 327.162 170.284 327.408L167.55 328.085L167.737 327.775L169.906 336.534ZM193.937 343.507C192.466 343.871 191.067 343.855 189.738 343.458C188.404 343.042 187.244 342.307 186.258 341.254C185.293 340.197 184.618 338.891 184.233 337.338C183.818 335.661 183.775 334.111 184.104 332.689C184.454 331.262 185.132 330.05 186.138 329.053C187.16 328.031 188.478 327.32 190.093 326.92C191.315 326.618 192.497 326.6 193.64 326.866C194.799 327.107 195.801 327.65 196.648 328.495C197.494 329.34 198.102 330.508 198.472 331.999C198.507 332.144 198.549 332.31 198.595 332.496C198.641 332.683 198.674 332.861 198.694 333.032L188.195 335.632L188.538 335.151C188.897 336.601 189.381 337.844 189.989 338.88C190.597 339.916 191.291 340.678 192.071 341.166C192.847 341.634 193.638 341.767 194.445 341.567C195.232 341.373 196.04 340.953 196.87 340.308C197.699 339.663 198.355 338.94 198.838 338.139L199.946 338.887C199.614 339.584 199.139 340.24 198.522 340.855C197.905 341.469 197.192 342.008 196.384 342.472C195.601 342.952 194.786 343.296 193.937 343.507ZM188.384 334.662L187.81 334.343L194.24 332.618L193.882 333.169C193.533 331.936 193.106 330.965 192.6 330.255C192.095 329.545 191.568 329.06 191.02 328.8C190.472 328.541 189.95 328.472 189.453 328.595C189.018 328.703 188.663 329 188.388 329.485C188.128 329.945 187.984 330.607 187.956 331.471C187.944 332.309 188.087 333.373 188.384 334.662ZM70.324 412.737L70.1702 412.116L73.0225 410.322L72.8586 410.725L68.1205 391.591L68.4536 391.871L65.0936 391.615L64.9397 390.994L74.8795 388.533C76.4119 388.153 77.8169 388.058 79.0944 388.247C80.3927 388.431 81.4758 388.855 82.3435 389.519C83.2113 390.184 83.7811 391.064 84.0528 392.162C84.4015 393.57 84.3287 394.918 83.8343 396.205C83.3347 397.472 82.476 398.574 81.258 399.513C80.0606 400.447 78.5509 401.14 76.7286 401.591L75.2997 401.945L75.5177 401.627L77.4869 409.579L77.1537 409.299L80.6691 409.516L80.8229 410.137L70.324 412.737ZM75.3408 400.913L74.992 400.702L76.98 400.21C78.0775 399.938 78.8448 399.265 79.2818 398.189C79.7395 397.109 79.7864 395.834 79.4223 394.364C79.1761 393.37 78.7951 392.541 78.2792 391.877C77.7581 391.193 77.1331 390.711 76.4042 390.43C75.696 390.144 74.9588 390.095 74.1926 390.285L72.5153 390.7L72.7333 390.383L75.3408 400.913ZM88.2217 408.305L88.0602 407.653L90.4543 406.005L90.2904 406.408L87.2982 394.325L87.6547 394.567L84.5965 394.731L84.4119 393.985L90.7446 390.67L91.2792 391.098L91.7703 393.613L91.6073 393.621L92.8491 390.116C93.2428 389.93 93.7139 389.792 94.2626 389.7C94.8112 389.608 95.3908 389.596 96.0011 389.665C96.6271 389.708 97.2399 389.874 97.8394 390.166L97.1943 394.083C96.6103 393.767 95.9976 393.556 95.3563 393.451C94.7305 393.32 94.1898 393.311 93.7343 393.424C93.4858 393.485 93.2551 393.663 93.0423 393.958C92.8295 394.252 92.5932 394.673 92.3332 395.221C92.2658 395.304 92.1879 395.433 92.0995 395.609C92.0319 395.779 91.9798 395.924 91.9434 396.043L92.1318 395.073L94.6701 405.324L94.337 405.044L97.5106 405.346L97.6645 405.967L88.2217 408.305ZM101.096 405.117L100.942 404.496L103.453 402.786L103.381 403.562L100.205 390.734L100.653 391.348L97.5951 391.512L97.4105 390.766L103.836 387.428L104.239 387.856L104.715 390.045L107.792 402.47L107.367 401.817L110.385 402.158L110.539 402.779L101.096 405.117ZM101.271 385.854C100.546 386.034 99.8712 385.926 99.246 385.532C98.6209 385.137 98.2211 384.588 98.0467 383.884C97.8673 383.159 97.9619 382.476 98.3307 381.835C98.6995 381.194 99.2463 380.784 99.9711 380.605C100.675 380.431 101.329 380.543 101.934 380.943C102.559 381.338 102.959 381.887 103.133 382.591C103.313 383.316 103.218 383.999 102.849 384.639C102.501 385.275 101.975 385.68 101.271 385.854ZM119.284 401.141C117.669 401.541 116.14 401.535 114.697 401.123C113.275 400.706 112.056 399.953 111.039 398.864C110.037 397.749 109.332 396.364 108.921 394.707C108.532 393.133 108.53 391.661 108.916 390.291C109.317 388.895 110.055 387.701 111.128 386.71C112.222 385.714 113.576 385.016 115.192 384.616C116.765 384.226 118.245 384.211 119.631 384.571C121.038 384.926 122.226 385.599 123.197 386.59C124.188 387.575 124.871 388.823 125.245 390.335C125.671 392.054 125.696 393.663 125.32 395.163C124.965 396.657 124.258 397.931 123.2 398.984C122.163 400.032 120.858 400.751 119.284 401.141ZM119.574 399.783C120.444 399.568 120.973 398.821 121.162 397.544C121.372 396.261 121.218 394.574 120.7 392.482C120.11 390.101 119.302 388.345 118.275 387.215C117.263 386.059 116.136 385.635 114.894 385.942C114.003 386.163 113.43 386.865 113.174 388.05C112.913 389.213 113.018 390.747 113.49 392.653C114.125 395.22 114.972 397.132 116.03 398.386C117.109 399.635 118.29 400.101 119.574 399.783ZM128.279 398.386L128.118 397.733L130.512 396.086L130.348 396.489L127.356 384.406L127.712 384.647L124.654 384.811L124.469 384.066L130.802 380.75L131.337 381.178L131.828 383.694L131.665 383.701L132.907 380.196C133.3 380.011 133.771 379.872 134.32 379.78C134.869 379.688 135.448 379.677 136.059 379.745C136.685 379.788 137.297 379.955 137.897 380.246L137.252 384.164C136.668 383.847 136.055 383.636 135.414 383.531C134.788 383.4 134.247 383.392 133.792 383.504C133.543 383.566 133.313 383.744 133.1 384.038C132.887 384.333 132.651 384.754 132.391 385.302C132.323 385.384 132.245 385.514 132.157 385.689C132.089 385.86 132.037 386.005 132.001 386.124L132.189 385.154L134.728 395.404L134.395 395.124L137.568 395.426L137.722 396.047L128.279 398.386ZM141.154 395.198L141 394.576L143.51 392.867L143.439 393.643L140.262 380.814L140.711 381.428L137.653 381.592L137.468 380.847L143.894 377.508L144.297 377.936L144.773 380.126L147.85 392.55L147.424 391.898L150.443 392.238L150.596 392.859L141.154 395.198ZM141.329 375.935C140.604 376.114 139.929 376.007 139.304 375.612C138.678 375.217 138.279 374.668 138.104 373.964C137.925 373.239 138.02 372.556 138.388 371.916C138.757 371.275 139.304 370.865 140.029 370.685C140.733 370.511 141.387 370.624 141.991 371.023C142.617 371.418 143.016 371.967 143.191 372.672C143.37 373.396 143.276 374.079 142.907 374.72C142.559 375.355 142.033 375.76 141.329 375.935ZM156.647 391.921C155.591 392.183 154.631 392.08 153.768 391.612C152.905 391.145 152.335 390.352 152.058 389.234L149.212 377.741L149.561 377.951L146.486 378.713L146.209 377.331L149.222 376.584L149.012 376.933L148.12 373.33L151.976 370.397L153.33 375.864L152.981 375.654L157.733 374.477L158.072 375.844L153.319 377.02L153.53 376.672L156.106 387.077C156.286 387.802 156.518 388.338 156.801 388.685C157.085 389.033 157.369 389.248 157.654 389.332C157.959 389.41 158.215 389.423 158.422 389.372C158.898 389.254 159.364 389.007 159.821 388.63C160.277 388.253 160.733 387.745 161.19 387.104L161.98 387.766C161.315 388.809 160.504 389.703 159.545 390.446C158.586 391.189 157.62 391.68 156.647 391.921ZM161.964 390.044L161.81 389.423L164.321 387.714L164.249 388.489L161.072 375.661L161.521 376.275L158.463 376.439L158.278 375.694L164.704 372.355L165.107 372.783L165.583 374.973L168.66 387.397L168.234 386.744L171.253 387.085L171.407 387.706L161.964 390.044ZM162.139 370.782C161.414 370.961 160.739 370.853 160.114 370.459C159.489 370.064 159.089 369.515 158.915 368.811C158.735 368.086 158.83 367.403 159.198 366.762C159.567 366.122 160.114 365.712 160.839 365.532C161.543 365.358 162.197 365.47 162.802 365.87C163.427 366.265 163.827 366.814 164.001 367.518C164.18 368.243 164.086 368.926 163.717 369.567C163.369 370.202 162.843 370.607 162.139 370.782ZM171.766 387.617L171.497 386.53L177.112 370.997L177.29 371.183L171.109 372.714L171.389 372.381L171.238 377.231L169.996 377.539L168.603 371.917L181.96 368.609L182.455 369.41L176.676 385.214L176.498 385.028L183.58 383.274L183.3 383.607L183.396 379.067L184.638 378.759L185.961 384.102L171.766 387.617ZM195.594 382.244C194.124 382.608 192.724 382.592 191.395 382.196C190.061 381.779 188.901 381.044 187.916 379.992C186.95 378.934 186.275 377.629 185.891 376.075C185.476 374.398 185.432 372.848 185.762 371.426C186.111 369.999 186.789 368.787 187.795 367.791C188.817 366.769 190.135 366.058 191.751 365.658C192.972 365.355 194.155 365.337 195.297 365.603C196.456 365.844 197.459 366.387 198.305 367.232C199.152 368.077 199.76 369.246 200.129 370.737C200.165 370.881 200.206 371.047 200.252 371.233C200.298 371.42 200.331 371.598 200.352 371.769L189.853 374.369L190.195 373.889C190.554 375.338 191.038 376.581 191.646 377.617C192.254 378.653 192.949 379.416 193.729 379.904C194.504 380.371 195.295 380.505 196.103 380.305C196.89 380.11 197.698 379.69 198.527 379.045C199.356 378.4 200.013 377.677 200.496 376.876L201.604 377.624C201.271 378.322 200.796 378.978 200.179 379.592C199.562 380.206 198.849 380.746 198.041 381.209C197.259 381.689 196.443 382.034 195.594 382.244ZM190.041 373.399L189.468 373.08L195.898 371.356L195.54 371.906C195.19 370.674 194.763 369.703 194.258 368.993C193.752 368.283 193.226 367.798 192.678 367.538C192.13 367.278 191.607 367.209 191.11 367.333C190.676 367.44 190.32 367.737 190.045 368.223C189.785 368.683 189.642 369.345 189.614 370.209C189.602 371.047 189.744 372.11 190.041 373.399ZM215.385 377.211L215.006 376.745L214.481 375.292L214.729 375.363C214.226 376.081 213.629 376.734 212.94 377.322C212.25 377.911 211.502 378.305 210.694 378.505C209.431 378.817 208.2 378.771 207 378.365C205.821 377.953 204.781 377.211 203.877 376.138C202.969 375.044 202.308 373.659 201.892 371.981C201.492 370.366 201.49 368.85 201.887 367.433C202.299 365.99 203.047 364.75 204.13 363.713C205.209 362.655 206.576 361.92 208.233 361.51C209.186 361.274 210.161 361.219 211.159 361.346L211.05 361.571L209.266 354.364L209.615 354.575L206.556 354.739L206.372 353.993L212.735 350.67L213.138 351.098L213.498 353.085L218.706 374.114L218.38 373.865L220.725 373.746L220.901 374.461L215.385 377.211ZM211.894 376.427C212.267 376.335 212.661 376.062 213.076 375.607C213.491 375.153 213.901 374.59 214.306 373.918L214.227 374.399L211.335 362.72L211.645 363.039C211.014 362.887 210.362 362.829 209.689 362.864C209.032 362.873 208.424 362.946 207.865 363.085C207.347 363.213 206.914 363.595 206.566 364.23C206.218 364.866 206.007 365.699 205.932 366.728C205.873 367.732 206 368.865 206.312 370.128C206.692 371.661 207.193 372.932 207.817 373.942C208.457 374.927 209.136 375.627 209.854 376.043C210.572 376.458 211.252 376.586 211.894 376.427ZM226.29 374.115L226.136 373.494L228.647 371.784L228.575 372.56L225.398 359.732L225.847 360.346L222.789 360.51L222.604 359.764L229.03 356.426L229.433 356.854L229.909 359.043L232.986 371.468L232.56 370.815L235.579 371.156L235.732 371.777L226.29 374.115ZM226.465 354.853C225.74 355.032 225.065 354.924 224.44 354.53C223.814 354.135 223.415 353.586 223.24 352.882C223.061 352.157 223.156 351.474 223.524 350.833C223.893 350.193 224.44 349.783 225.165 349.603C225.869 349.429 226.523 349.541 227.127 349.941C227.753 350.336 228.152 350.885 228.327 351.589C228.506 352.314 228.412 352.997 228.043 353.638C227.695 354.273 227.169 354.678 226.465 354.853ZM235.284 371.888L235.13 371.267L237.789 369.488L237.516 370.116L234.462 357.784L235.175 358.135L231.783 358.283L231.599 357.537L238.025 354.199L238.365 354.51L238.788 356.35L238.354 356.326C238.691 355.825 239.09 355.352 239.552 354.908C240.013 354.464 240.49 354.083 240.983 353.763C241.475 353.443 241.959 353.224 242.435 353.106C243.595 352.819 244.669 352.762 245.657 352.935C246.644 353.108 247.474 353.485 248.145 354.066C248.832 354.621 249.291 355.365 249.522 356.297L252.053 366.516L251.611 366.065L254.668 366.429L254.822 367.05L245.845 369.273L245.691 368.652L247.962 366.903L247.657 367.67L245.327 358.259C245.039 357.099 244.581 356.223 243.951 355.632C243.321 355.041 242.633 354.838 241.888 355.022C241.536 355.109 241.168 355.31 240.784 355.625C240.416 355.914 240.064 356.265 239.727 356.678C239.389 357.091 239.091 357.528 238.831 357.988L238.957 357.034L241.942 369.086L241.376 368.533L244.169 369.028L244.323 369.65L235.284 371.888ZM267.656 364.432C266.558 364.704 265.526 364.751 264.559 364.573C263.587 364.374 262.765 363.984 262.093 363.403C261.422 362.822 260.974 362.076 260.748 361.165L258.256 351.101L258.589 351.381L255.571 351.041L255.409 350.388L262.305 348.681L264.912 359.211C265.194 360.349 265.65 361.215 266.28 361.806C266.931 362.392 267.629 362.593 268.374 362.408C268.851 362.29 269.325 361.942 269.797 361.364C270.285 360.759 270.705 360.106 271.059 359.403L271.035 359.837L268.258 348.624L268.591 348.904L265.976 348.596L265.791 347.85L272.314 346.235L275.707 359.933L275.389 359.715L278.028 359.457L278.251 360.358L272.432 363.217L272.029 362.921L271.358 360.878L271.544 360.964C271.274 361.47 270.934 361.961 270.524 362.436C270.114 362.911 269.658 363.332 269.155 363.698C268.673 364.059 268.174 364.304 267.656 364.432ZM278.348 361.224L278.186 360.572L280.58 358.924L280.416 359.327L277.424 347.244L277.781 347.486L274.723 347.65L274.538 346.904L280.871 343.589L281.405 344.017L281.896 346.532L281.733 346.54L282.975 343.035C283.369 342.849 283.84 342.71 284.389 342.619C284.937 342.527 285.517 342.515 286.127 342.584C286.753 342.626 287.366 342.793 287.966 343.084L287.32 347.002C286.736 346.685 286.124 346.475 285.482 346.37C284.857 346.239 284.316 346.23 283.86 346.343C283.612 346.404 283.381 346.582 283.168 346.877C282.956 347.171 282.719 347.592 282.459 348.14C282.392 348.223 282.314 348.352 282.226 348.528C282.158 348.698 282.106 348.843 282.069 348.962L282.258 347.992L284.796 358.243L284.463 357.963L287.637 358.265L287.791 358.886L278.348 361.224ZM300.695 356.218C299.784 356.443 298.945 356.563 298.179 356.577C297.414 356.591 296.645 356.55 295.875 356.455C295.125 356.355 294.315 356.237 293.446 356.101L288.216 334.979L288.541 335.228L285.491 335.423L285.306 334.677L291.654 331.292L292.181 331.821L292.657 334.011L294.511 341.497L294.317 341.38C294.758 340.941 295.349 340.531 296.09 340.15C296.825 339.748 297.576 339.452 298.342 339.262C299.171 339.057 300.011 339.036 300.865 339.198C301.734 339.334 302.558 339.647 303.338 340.135C304.114 340.602 304.785 341.227 305.352 342.01C305.94 342.787 306.368 343.714 306.634 344.791C306.978 346.179 307.055 347.511 306.866 348.789C306.692 350.04 306.315 351.178 305.733 352.201C305.172 353.219 304.451 354.079 303.57 354.781C302.709 355.477 301.751 355.956 300.695 356.218ZM300.745 354.689C301.283 354.556 301.739 354.135 302.114 353.427C302.483 352.698 302.699 351.754 302.764 350.596C302.849 349.432 302.715 348.135 302.361 346.706C302.028 345.36 301.549 344.27 300.925 343.436C300.317 342.575 299.63 341.976 298.865 341.638C298.115 341.274 297.357 341.187 296.591 341.377C296.322 341.444 296.014 341.619 295.667 341.903C295.319 342.187 294.985 342.522 294.663 342.909L294.749 342.459L297.711 354.418L297.456 354.053C298.06 354.365 298.642 354.583 299.2 354.709C299.754 354.813 300.269 354.807 300.745 354.689ZM315.402 352.576C314.201 352.873 313.156 352.868 312.267 352.561C311.398 352.249 310.693 351.753 310.151 351.074C309.63 350.39 309.265 349.623 309.054 348.774C308.895 348.132 309 347.491 309.369 346.85C309.738 346.209 310.301 345.597 311.057 345.014C311.835 344.426 312.747 343.893 313.793 343.414C314.834 342.914 315.947 342.485 317.133 342.125L316.946 342.435L316.246 339.609C316.015 338.677 315.621 337.972 315.063 337.495C314.501 336.997 313.94 336.817 313.381 336.956C312.946 337.063 312.542 337.295 312.168 337.652C311.795 338.008 311.525 338.426 311.358 338.907C311.192 339.388 311.17 339.877 311.293 340.374C311.349 340.602 311.398 340.798 311.439 340.964C311.501 341.124 311.544 341.257 311.57 341.36L308.112 343.106C308.051 342.946 307.989 342.741 307.928 342.493C307.866 342.244 307.802 341.985 307.735 341.716C307.515 340.826 307.602 339.98 307.997 339.179C308.408 338.352 309.085 337.624 310.028 336.995C310.986 336.34 312.17 335.838 313.578 335.489C314.696 335.212 315.731 335.132 316.683 335.248C317.655 335.359 318.462 335.643 319.102 336.099C319.743 336.556 320.158 337.168 320.348 337.934L322.963 348.495L322.614 348.284L325.696 347.95L325.904 348.788L319.534 351.553L319.107 351.296L318.654 349.331L318.84 349.417C318.404 350.14 317.887 350.807 317.291 351.416C316.715 352.02 316.086 352.407 315.402 352.576ZM316.464 349.939C316.816 349.852 317.158 349.636 317.49 349.29C317.837 348.918 318.162 348.453 318.463 347.895L318.415 348.368L317.131 343.181L317.549 343.539C315.986 343.97 314.818 344.446 314.046 344.967C313.268 345.467 312.98 346.121 313.18 346.928C313.334 347.55 313.583 348.114 313.929 348.622C314.274 349.13 314.664 349.506 315.098 349.75C315.532 349.994 315.987 350.057 316.464 349.939ZM325.622 349.518L325.468 348.896L328.126 347.117L327.853 347.745L324.8 335.414L325.513 335.765L322.121 335.912L321.936 335.167L328.362 331.828L328.703 332.139L329.126 333.98L328.691 333.956C329.029 333.454 329.428 332.982 329.89 332.538C330.351 332.094 330.828 331.712 331.32 331.392C331.812 331.073 332.297 330.854 332.773 330.736C333.933 330.449 335.006 330.392 335.994 330.565C336.982 330.738 337.812 331.115 338.483 331.696C339.17 332.251 339.629 332.994 339.86 333.926L342.39 344.145L341.949 343.694L345.006 344.058L345.16 344.679L336.183 346.902L336.029 346.281L338.299 344.532L337.995 345.3L335.664 335.888C335.377 334.728 334.919 333.853 334.289 333.262C333.659 332.671 332.971 332.467 332.225 332.652C331.873 332.739 331.506 332.94 331.122 333.255C330.754 333.544 330.401 333.895 330.064 334.308C329.727 334.721 329.428 335.158 329.169 335.618L329.295 334.663L332.279 346.715L331.714 346.163L334.507 346.658L334.661 347.279L325.622 349.518ZM86.011 448.528C84.8099 448.825 83.7647 448.82 82.8755 448.513C82.0069 448.201 81.3018 447.705 80.76 447.026C80.2389 446.342 79.8733 445.575 79.6631 444.726C79.5041 444.084 79.609 443.443 79.9778 442.802C80.3466 442.161 80.9093 441.55 81.6661 440.967C82.4435 440.378 83.3553 439.845 84.4016 439.366C85.4427 438.867 86.5561 438.437 87.7417 438.077L87.5548 438.387L86.8548 435.561C86.6241 434.629 86.2298 433.924 85.6721 433.447C85.1092 432.949 84.5482 432.769 83.9891 432.908C83.5542 433.016 83.1501 433.248 82.7768 433.604C82.4035 433.96 82.1335 434.378 81.9668 434.859C81.8002 435.34 81.7784 435.829 81.9015 436.326C81.9579 436.554 82.0066 436.75 82.0476 436.916C82.1094 437.077 82.153 437.209 82.1787 437.312L78.7211 439.059C78.6593 438.898 78.5977 438.693 78.5362 438.445C78.4746 438.196 78.4105 437.938 78.3439 437.668C78.1234 436.778 78.2106 435.932 78.6057 435.131C79.0163 434.304 79.6931 433.576 80.6362 432.947C81.5949 432.292 82.7783 431.79 84.1864 431.441C85.3046 431.165 86.3396 431.084 87.2914 431.2C88.2639 431.311 89.0704 431.595 89.711 432.051C90.3516 432.508 90.7667 433.12 90.9564 433.886L93.5717 444.447L93.2229 444.237L96.3048 443.902L96.5125 444.741L90.1422 447.505L89.7159 447.248L89.2624 445.283L89.4484 445.369C89.0122 446.092 88.4959 446.759 87.8995 447.368C87.3238 447.972 86.6943 448.359 86.011 448.528ZM87.0724 445.891C87.4244 445.804 87.7664 445.588 88.0983 445.242C88.4458 444.87 88.7702 444.405 89.0715 443.847L89.0239 444.32L87.7394 439.133L88.1577 439.491C86.5941 439.922 85.4263 440.398 84.6542 440.919C83.877 441.419 83.5884 442.073 83.7883 442.881C83.9422 443.502 84.1919 444.066 84.5374 444.574C84.8829 445.082 85.2727 445.458 85.7068 445.702C86.1409 445.946 86.5961 446.009 87.0724 445.891ZM96.3547 445.439L96.1932 444.787L98.5873 443.139L98.4234 443.542L95.4313 431.459L95.7878 431.7L92.7295 431.864L92.5449 431.119L98.8777 427.803L99.4122 428.232L99.9033 430.747L99.7403 430.755L100.982 427.249C101.376 427.064 101.847 426.925 102.396 426.833C102.944 426.742 103.524 426.73 104.134 426.798C104.76 426.841 105.373 427.008 105.972 427.299L105.327 431.217C104.743 430.9 104.131 430.689 103.489 430.584C102.864 430.454 102.323 430.445 101.867 430.558C101.619 430.619 101.388 430.797 101.175 431.092C100.963 431.386 100.726 431.807 100.466 432.355C100.399 432.438 100.321 432.567 100.233 432.743C100.165 432.913 100.113 433.058 100.076 433.177L100.265 432.207L102.803 442.458L102.47 442.177L105.644 442.479L105.798 443.101L96.3547 445.439ZM117.105 440.828C115.635 441.192 114.235 441.176 112.906 440.78C111.572 440.363 110.412 439.628 109.426 438.576C108.461 437.518 107.786 436.213 107.402 434.66C106.986 432.982 106.943 431.433 107.272 430.01C107.622 428.583 108.3 427.371 109.306 426.375C110.328 425.353 111.646 424.642 113.261 424.242C114.483 423.939 115.665 423.921 116.808 424.187C117.967 424.428 118.969 424.971 119.816 425.816C120.663 426.662 121.27 427.83 121.64 429.321C121.676 429.466 121.717 429.631 121.763 429.818C121.809 430.004 121.842 430.183 121.862 430.353L111.364 432.953L111.706 432.473C112.065 433.922 112.549 435.165 113.157 436.201C113.765 437.238 114.459 438 115.24 438.488C116.015 438.955 116.806 439.089 117.614 438.889C118.4 438.694 119.209 438.274 120.038 437.629C120.867 436.984 121.523 436.261 122.006 435.461L123.114 436.208C122.782 436.906 122.307 437.562 121.69 438.176C121.073 438.791 120.36 439.33 119.552 439.794C118.77 440.273 117.954 440.618 117.105 440.828ZM111.552 431.983L110.978 431.664L117.408 429.94L117.05 430.49C116.701 429.258 116.274 428.287 115.768 427.577C115.263 426.867 114.736 426.382 114.188 426.122C113.64 425.862 113.118 425.794 112.621 425.917C112.186 426.024 111.831 426.321 111.556 426.807C111.296 427.267 111.152 427.929 111.125 428.793C111.112 429.631 111.255 430.694 111.552 431.983ZM130.801 437.437C129.6 437.734 128.554 437.729 127.665 437.422C126.797 437.109 126.091 436.614 125.55 435.935C125.029 435.251 124.663 434.484 124.453 433.635C124.294 432.993 124.399 432.352 124.767 431.711C125.136 431.07 125.699 430.458 126.456 429.875C127.233 429.287 128.145 428.754 129.191 428.275C130.232 427.775 131.346 427.346 132.531 426.986L132.344 427.296L131.644 424.47C131.414 423.538 131.019 422.833 130.462 422.356C129.899 421.858 129.338 421.678 128.779 421.817C128.344 421.924 127.94 422.156 127.566 422.512C127.193 422.869 126.923 423.287 126.757 423.768C126.59 424.249 126.568 424.738 126.691 425.235C126.748 425.462 126.796 425.659 126.837 425.825C126.899 425.985 126.943 426.117 126.968 426.221L123.511 427.967C123.449 427.807 123.387 427.602 123.326 427.354C123.264 427.105 123.2 426.846 123.134 426.577C122.913 425.687 123 424.841 123.395 424.04C123.806 423.213 124.483 422.485 125.426 421.856C126.385 421.201 127.568 420.699 128.976 420.35C130.094 420.073 131.129 419.993 132.081 420.109C133.054 420.22 133.86 420.503 134.501 420.96C135.141 421.417 135.556 422.028 135.746 422.795L138.361 433.356L138.013 433.145L141.094 432.811L141.302 433.649L134.932 436.414L134.506 436.156L134.052 434.192L134.238 434.278C133.802 435.001 133.286 435.667 132.689 436.277C132.113 436.881 131.484 437.267 130.801 437.437ZM131.862 434.8C132.214 434.713 132.556 434.496 132.888 434.15C133.235 433.779 133.56 433.314 133.861 432.756L133.814 433.229L132.529 428.042L132.947 428.4C131.384 428.831 130.216 429.307 129.444 429.828C128.667 430.328 128.378 430.982 128.578 431.789C128.732 432.41 128.982 432.975 129.327 433.483C129.673 433.991 130.062 434.367 130.496 434.611C130.931 434.855 131.386 434.918 131.862 434.8ZM147.837 433.284C146.574 433.597 145.381 433.705 144.258 433.61C143.156 433.509 142.363 433.233 141.877 432.782L141.225 429.35L142.437 429.05L143.333 430.674C143.72 431.347 144.28 431.835 145.014 432.137C145.769 432.433 146.561 432.479 147.389 432.274C148.259 432.058 148.919 431.62 149.371 430.959C149.818 430.277 149.946 429.553 149.756 428.787C149.638 428.31 149.38 427.979 148.982 427.791C148.605 427.599 148.132 427.464 147.563 427.385C146.994 427.306 146.391 427.224 145.755 427.14C145.072 427.045 144.369 426.912 143.645 426.74C142.942 426.562 142.275 426.31 141.644 425.982C141.014 425.655 140.451 425.201 139.955 424.62C139.481 424.035 139.13 423.286 138.905 422.375C138.695 421.526 138.782 420.724 139.166 419.97C139.546 419.194 140.166 418.502 141.026 417.894C141.886 417.285 142.906 416.835 144.087 416.542C144.894 416.342 145.787 416.264 146.765 416.308C147.758 416.325 148.632 416.439 149.387 416.647L150.287 420.282L149.076 420.582L148.141 418.934C147.795 418.338 147.284 417.915 146.607 417.666C145.95 417.411 145.259 417.373 144.535 417.552C143.769 417.742 143.186 418.139 142.786 418.744C142.402 419.322 142.294 419.953 142.463 420.637C142.576 421.092 142.824 421.426 143.206 421.639C143.583 421.832 144.046 421.97 144.595 422.054C145.163 422.133 145.745 422.219 146.34 422.314C147.23 422.445 148.127 422.652 149.032 422.933C149.957 423.209 150.777 423.677 151.489 424.336C152.197 424.974 152.701 425.903 153.004 427.125C153.225 428.016 153.142 428.882 152.758 429.725C152.388 430.541 151.776 431.264 150.921 431.894C150.066 432.523 149.038 432.986 147.837 433.284ZM157.564 422.666L157.48 422.325C157.228 421.31 157.142 420.43 157.222 419.685C157.296 418.92 157.468 418.24 157.738 417.645C158.004 417.03 158.302 416.462 158.635 415.94C158.988 415.413 159.312 414.904 159.608 414.413C159.899 413.901 160.105 413.356 160.225 412.777C160.345 412.198 160.316 411.546 160.136 410.821C159.865 409.723 159.411 408.956 158.775 408.52C158.161 408.079 157.45 407.959 156.642 408.159C156.145 408.282 155.702 408.622 155.313 409.18C154.918 409.717 154.658 410.441 154.532 411.352C154.4 412.241 154.481 413.276 154.773 414.457L152.04 415.133L150.878 410.443C151.215 410.03 151.669 409.599 152.239 409.15C152.825 408.675 153.475 408.24 154.19 407.843C154.905 407.446 155.625 407.158 156.35 406.978C157.737 406.635 159 406.498 160.138 406.568C161.297 406.632 162.269 406.919 163.054 407.428C163.835 407.916 164.353 408.678 164.609 409.713C164.768 410.355 164.731 410.958 164.497 411.521C164.283 412.08 163.971 412.64 163.561 413.203C163.167 413.741 162.778 414.342 162.393 415.009C162.024 415.65 161.759 416.397 161.597 417.25C161.434 418.104 161.497 419.11 161.784 420.27L161.884 420.674L157.564 422.666ZM162.011 429.708C161.224 429.903 160.51 429.816 159.87 429.447C159.224 429.057 158.803 428.469 158.609 427.682C158.414 426.895 158.514 426.189 158.908 425.564C159.298 424.918 159.886 424.498 160.673 424.303C161.46 424.108 162.166 424.208 162.791 424.603C163.432 424.972 163.849 425.549 164.044 426.336C164.239 427.123 164.142 427.84 163.752 428.485C163.378 429.106 162.798 429.513 162.011 429.708Z" fill="#F2CC8F"/>
<path d="M145.225 540.479L145.071 539.858L147.923 538.064L147.759 538.467L143.021 519.333L143.354 519.613L139.994 519.357L139.841 518.736L150.215 516.167L150.369 516.788L147.493 518.621L147.657 518.218L149.865 527.133L149.524 526.953L160.426 524.253L160.208 524.571L157.993 515.625L158.326 515.905L154.966 515.65L154.812 515.028L165.187 512.459L165.341 513.081L162.465 514.914L162.629 514.51L167.359 533.613L167.026 533.333L170.417 533.581L170.571 534.203L160.197 536.772L160.043 536.15L162.895 534.356L162.731 534.759L160.439 525.503L160.78 525.682L149.877 528.382L150.095 528.064L152.388 537.321L152.055 537.041L155.446 537.289L155.599 537.91L145.225 540.479ZM179.047 532.631C177.432 533.031 175.903 533.025 174.46 532.613C173.038 532.196 171.819 531.443 170.802 530.354C169.8 529.24 169.095 527.854 168.684 526.197C168.295 524.624 168.293 523.152 168.679 521.781C169.08 520.385 169.818 519.192 170.891 518.201C171.985 517.204 173.339 516.506 174.955 516.106C176.529 515.717 178.008 515.702 179.394 516.062C180.801 516.417 181.989 517.09 182.96 518.08C183.951 519.065 184.634 520.314 185.008 521.825C185.434 523.544 185.459 525.153 185.083 526.653C184.728 528.148 184.021 529.421 182.963 530.475C181.926 531.523 180.621 532.241 179.047 532.631ZM179.337 531.274C180.207 531.058 180.736 530.312 180.925 529.034C181.135 527.752 180.981 526.064 180.463 523.973C179.873 521.592 179.065 519.836 178.038 518.705C177.026 517.549 175.899 517.125 174.657 517.433C173.766 517.653 173.193 518.356 172.937 519.54C172.676 520.704 172.781 522.238 173.253 524.143C173.888 526.711 174.735 528.622 175.793 529.877C176.872 531.126 178.053 531.592 179.337 531.274ZM195.597 528.566C194.499 528.838 193.467 528.885 192.5 528.706C191.528 528.508 190.706 528.118 190.034 527.537C189.363 526.956 188.915 526.21 188.689 525.299L186.197 515.235L186.53 515.515L183.512 515.174L183.35 514.522L190.246 512.814L192.853 523.344C193.135 524.483 193.591 525.348 194.221 525.94C194.872 526.526 195.57 526.726 196.315 526.542C196.792 526.424 197.266 526.076 197.738 525.497C198.226 524.893 198.646 524.239 199 523.536L198.975 523.971L196.199 512.758L196.532 513.038L193.917 512.729L193.732 511.984L200.255 510.369L203.647 524.067L203.33 523.849L205.969 523.591L206.192 524.492L200.373 527.35L199.97 527.054L199.299 525.012L199.485 525.098C199.215 525.604 198.875 526.095 198.465 526.57C198.055 527.045 197.599 527.466 197.096 527.832C196.614 528.193 196.115 528.438 195.597 528.566ZM212.981 524.294C211.718 524.607 210.525 524.715 209.403 524.62C208.301 524.519 207.507 524.243 207.022 523.792L206.37 520.36L207.581 520.06L208.478 521.684C208.864 522.357 209.425 522.845 210.159 523.147C210.913 523.443 211.705 523.489 212.533 523.284C213.403 523.069 214.064 522.63 214.515 521.969C214.962 521.287 215.09 520.563 214.9 519.797C214.782 519.32 214.525 518.989 214.127 518.802C213.749 518.609 213.276 518.474 212.707 518.395C212.138 518.316 211.536 518.234 210.899 518.15C210.217 518.056 209.513 517.922 208.789 517.75C208.086 517.572 207.419 517.32 206.789 516.992C206.158 516.665 205.595 516.211 205.1 515.63C204.625 515.045 204.275 514.296 204.049 513.385C203.839 512.536 203.926 511.734 204.311 510.98C204.69 510.204 205.31 509.513 206.17 508.904C207.03 508.295 208.051 507.845 209.231 507.553C210.039 507.353 210.931 507.274 211.909 507.318C212.903 507.336 213.777 507.449 214.532 507.657L215.432 511.292L214.22 511.592L213.285 509.944C212.939 509.348 212.428 508.926 211.751 508.676C211.094 508.421 210.404 508.383 209.679 508.562C208.913 508.752 208.33 509.149 207.93 509.754C207.546 510.332 207.438 510.963 207.608 511.647C207.72 512.102 207.968 512.437 208.35 512.65C208.728 512.842 209.19 512.98 209.739 513.064C210.308 513.143 210.89 513.23 211.484 513.324C212.374 513.455 213.271 513.662 214.176 513.943C215.102 514.22 215.921 514.687 216.633 515.346C217.341 515.984 217.846 516.914 218.148 518.135C218.369 519.026 218.287 519.892 217.902 520.735C217.533 521.551 216.921 522.274 216.065 522.904C215.21 523.533 214.182 523.997 212.981 524.294ZM220.012 521.959L219.859 521.338L222.369 519.629L222.298 520.405L219.121 507.576L219.57 508.19L216.511 508.354L216.327 507.609L222.753 504.27L223.155 504.698L223.632 506.888L226.708 519.312L226.283 518.659L229.301 519L229.455 519.621L220.012 521.959ZM220.187 502.697C219.463 502.876 218.788 502.768 218.162 502.374C217.537 501.979 217.137 501.43 216.963 500.726C216.784 500.001 216.878 499.318 217.247 498.678C217.616 498.037 218.163 497.627 218.887 497.447C219.591 497.273 220.246 497.386 220.85 497.785C221.475 498.18 221.875 498.729 222.05 499.433C222.229 500.158 222.134 500.841 221.766 501.482C221.417 502.117 220.891 502.522 220.187 502.697ZM229.007 519.732L228.853 519.111L231.511 517.332L231.238 517.96L228.185 505.628L228.898 505.979L225.506 506.127L225.321 505.381L231.747 502.043L232.088 502.354L232.511 504.194L232.076 504.17C232.414 503.669 232.813 503.196 233.275 502.752C233.736 502.308 234.213 501.927 234.705 501.607C235.198 501.287 235.682 501.068 236.158 500.95C237.318 500.663 238.391 500.606 239.379 500.779C240.367 500.952 241.197 501.329 241.868 501.91C242.555 502.465 243.014 503.209 243.245 504.141L245.775 514.36L245.334 513.909L248.391 514.273L248.545 514.894L239.568 517.117L239.414 516.496L241.684 514.747L241.38 515.514L239.049 506.103C238.762 504.943 238.304 504.068 237.674 503.476C237.044 502.885 236.356 502.682 235.611 502.866C235.259 502.953 234.891 503.154 234.507 503.469C234.139 503.758 233.786 504.109 233.449 504.522C233.112 504.936 232.814 505.372 232.554 505.832L232.68 504.878L235.665 516.93L235.099 516.377L237.892 516.873L238.046 517.494L229.007 519.732ZM257.732 519.806C256.283 520.165 254.934 520.312 253.688 520.247C252.461 520.177 251.44 519.913 250.624 519.456C249.812 519.02 249.307 518.398 249.107 517.59C248.978 517.072 249.003 516.418 249.181 515.626C249.384 514.851 249.741 514.026 250.25 513.153L250.35 513.557C249.781 513.302 249.283 512.931 248.854 512.444C248.426 511.956 248.13 511.381 247.966 510.719C247.868 510.325 247.864 509.909 247.953 509.469C248.062 509.024 248.221 508.601 248.429 508.197C248.658 507.789 248.917 507.461 249.207 507.213L249.292 507.423C248.714 507.039 248.208 506.549 247.774 505.953C247.336 505.336 247.035 504.697 246.871 504.034C246.609 502.978 246.679 501.972 247.079 501.015C247.475 500.038 248.154 499.189 249.118 498.466C250.103 497.739 251.289 497.204 252.676 496.86C253.36 496.691 254.074 496.602 254.819 496.593C255.58 496.559 256.283 496.604 256.93 496.73L256.58 496.783L261.427 495.188L261.773 496.585L261.625 496.919L258.24 497.493L258.403 497.354C258.884 497.609 259.297 497.99 259.642 498.498C259.983 498.985 260.222 499.508 260.361 500.067C260.653 501.247 260.622 502.365 260.268 503.42C259.914 504.474 259.262 505.394 258.314 506.178C257.386 506.957 256.197 507.527 254.747 507.886C254.126 508.039 253.466 508.126 252.768 508.145C252.064 508.143 251.464 508.072 250.968 507.931L251.03 507.916C250.972 508.04 250.923 508.195 250.881 508.381C250.839 508.568 250.8 508.764 250.763 508.971C250.742 509.152 250.747 509.305 250.778 509.429C250.875 509.822 251.118 510.092 251.506 510.238C251.914 510.378 252.388 510.382 252.926 510.249L259.573 508.603C260.754 508.31 261.786 508.395 262.669 508.858C263.553 509.32 264.113 510.028 264.349 510.98C264.672 512.285 264.617 513.529 264.185 514.713C263.758 515.918 262.995 516.964 261.896 517.851C260.798 518.739 259.409 519.39 257.732 519.806ZM257.891 518.316C258.926 518.059 259.801 517.689 260.516 517.204C261.257 516.735 261.781 516.188 262.088 515.562C262.415 514.932 262.494 514.275 262.325 513.591C262.202 513.094 261.954 512.76 261.582 512.589C261.231 512.412 260.776 512.349 260.217 512.399C259.678 512.445 259.078 512.549 258.415 512.713L253.818 513.852C253.466 513.939 253.07 513.982 252.63 513.981C252.216 513.996 251.854 513.953 251.544 513.854L252.212 513.623C251.838 514.155 251.612 514.662 251.534 515.143C251.481 515.639 251.511 516.115 251.623 516.571C251.793 517.254 252.203 517.757 252.854 518.079C253.51 518.422 254.281 518.605 255.166 518.628C256.071 518.645 256.979 518.541 257.891 518.316ZM254.813 506.419C255.537 506.239 256.02 505.79 256.259 505.072C256.494 504.332 256.465 503.372 256.173 502.192C255.803 500.701 255.309 499.637 254.69 498.999C254.07 498.361 253.325 498.15 252.456 498.365C251.814 498.524 251.391 498.948 251.188 499.635C250.979 500.302 251.021 501.226 251.314 502.406C251.683 503.897 252.162 504.987 252.75 505.677C253.338 506.366 254.026 506.614 254.813 506.419Z" fill="#424242"/>
<path d="M170.447 598.534L156.815 579.559L157.466 579.925L154.152 579.723L153.998 579.102L160.677 577.448L171.965 593.213L171.577 593.375L172.581 585.05L172.989 586.564L166.079 577.165L167.04 577.719L163.253 577.47L163.099 576.848L169.902 575.164L173.91 580.699L173.514 580.962L174.287 575.166L174.744 575.811L172.541 575.17L172.387 574.549L178.195 573.11L178.349 573.731L175.458 575.634L176.104 574.782L174.937 582.983L174.668 581.764L181.051 590.765L180.702 590.819L183.279 573.269L183.643 573.673L180.477 573.139L180.339 572.579L187.576 570.787L187.73 571.408L184.575 573.311L185.143 572.675L181.747 595.307L179.766 596.226L173.43 587.147L174.137 586.807L172.677 597.553L170.447 598.534ZM193.997 592.801C192.796 593.099 191.751 593.094 190.862 592.786C189.993 592.474 189.288 591.978 188.746 591.299C188.225 590.615 187.86 589.849 187.649 589C187.49 588.358 187.595 587.716 187.964 587.076C188.333 586.435 188.896 585.823 189.652 585.24C190.43 584.652 191.342 584.118 192.388 583.639C193.429 583.14 194.542 582.71 195.728 582.351L195.541 582.661L194.841 579.834C194.61 578.902 194.216 578.198 193.658 577.721C193.095 577.223 192.534 577.043 191.975 577.181C191.54 577.289 191.136 577.521 190.763 577.877C190.39 578.233 190.12 578.652 189.953 579.133C189.786 579.613 189.765 580.102 189.888 580.599C189.944 580.827 189.993 581.024 190.034 581.189C190.096 581.35 190.139 581.482 190.165 581.586L186.707 583.332C186.646 583.171 186.584 582.967 186.522 582.718C186.461 582.47 186.397 582.211 186.33 581.942C186.11 581.051 186.197 580.206 186.592 579.404C187.002 578.577 187.679 577.849 188.622 577.22C189.581 576.565 190.764 576.064 192.173 575.715C193.291 575.438 194.326 575.357 195.278 575.473C196.25 575.584 197.057 575.868 197.697 576.325C198.338 576.781 198.753 577.393 198.943 578.159L201.558 588.72L201.209 588.51L204.291 588.175L204.499 589.014L198.128 591.778L197.702 591.521L197.249 589.557L197.435 589.642C196.998 590.366 196.482 591.032 195.886 591.641C195.31 592.245 194.681 592.632 193.997 592.801ZM195.059 590.165C195.411 590.078 195.753 589.861 196.084 589.515C196.432 589.143 196.756 588.678 197.058 588.12L197.01 588.594L195.726 583.406L196.144 583.764C194.58 584.195 193.413 584.671 192.64 585.192C191.863 585.692 191.575 586.346 191.775 587.154C191.928 587.775 192.178 588.34 192.524 588.847C192.869 589.355 193.259 589.731 193.693 589.975C194.127 590.22 194.582 590.283 195.059 590.165ZM211.033 588.648C209.77 588.961 208.577 589.07 207.455 588.974C206.353 588.873 205.559 588.597 205.074 588.146L204.422 584.714L205.633 584.414L206.53 586.038C206.917 586.712 207.477 587.199 208.211 587.501C208.966 587.798 209.757 587.844 210.586 587.638C211.455 587.423 212.116 586.985 212.568 586.323C213.014 585.642 213.142 584.917 212.953 584.151C212.835 583.675 212.577 583.343 212.179 583.156C211.802 582.964 211.328 582.828 210.759 582.749C210.19 582.67 209.588 582.589 208.952 582.505C208.269 582.41 207.565 582.277 206.842 582.104C206.138 581.927 205.471 581.674 204.841 581.347C204.21 581.02 203.647 580.566 203.152 579.985C202.677 579.399 202.327 578.651 202.101 577.74C201.891 576.891 201.978 576.089 202.363 575.334C202.742 574.559 203.362 573.867 204.222 573.258C205.083 572.65 206.103 572.199 207.283 571.907C208.091 571.707 208.984 571.629 209.961 571.672C210.955 571.69 211.829 571.803 212.584 572.012L213.484 575.646L212.273 575.946L211.337 574.299C210.992 573.703 210.48 573.28 209.803 573.03C209.147 572.775 208.456 572.737 207.731 572.917C206.965 573.107 206.382 573.504 205.982 574.108C205.598 574.687 205.491 575.318 205.66 576.001C205.773 576.457 206.02 576.791 206.403 577.004C206.78 577.196 207.243 577.335 207.791 577.419C208.36 577.497 208.942 577.584 209.537 577.679C210.426 577.81 211.324 578.016 212.228 578.298C213.154 578.574 213.973 579.041 214.686 579.7C215.393 580.338 215.898 581.268 216.201 582.49C216.421 583.38 216.339 584.247 215.954 585.089C215.585 585.906 214.973 586.629 214.118 587.258C213.263 587.888 212.235 588.351 211.033 588.648ZM224.169 585.363C223.113 585.624 222.153 585.521 221.29 585.054C220.427 584.586 219.857 583.793 219.58 582.675L216.734 571.182L217.083 571.392L214.008 572.154L213.732 570.772L216.745 570.026L216.534 570.374L215.642 566.771L219.498 563.838L220.852 569.305L220.503 569.095L225.255 567.918L225.594 569.285L220.841 570.462L221.052 570.113L223.629 580.519C223.808 581.243 224.04 581.779 224.323 582.127C224.607 582.474 224.891 582.689 225.176 582.773C225.481 582.851 225.737 582.865 225.944 582.813C226.42 582.695 226.887 582.448 227.343 582.071C227.799 581.695 228.255 581.186 228.712 580.545L229.502 581.207C228.838 582.251 228.026 583.144 227.067 583.887C226.108 584.63 225.142 585.122 224.169 585.363ZM237.362 582.063C235.891 582.427 234.492 582.411 233.163 582.015C231.829 581.598 230.669 580.863 229.683 579.81C228.718 578.753 228.043 577.447 227.658 575.894C227.243 574.217 227.2 572.667 227.529 571.245C227.879 569.818 228.557 568.606 229.563 567.61C230.584 566.587 231.903 565.876 233.518 565.476C234.74 565.174 235.922 565.156 237.065 565.422C238.223 565.663 239.226 566.206 240.073 567.051C240.919 567.896 241.527 569.064 241.897 570.555C241.932 570.7 241.973 570.866 242.02 571.052C242.066 571.239 242.099 571.417 242.119 571.588L231.62 574.188L231.963 573.708C232.322 575.157 232.806 576.4 233.414 577.436C234.022 578.472 234.716 579.234 235.496 579.723C236.271 580.19 237.063 580.324 237.87 580.124C238.657 579.929 239.465 579.509 240.295 578.864C241.124 578.219 241.78 577.496 242.263 576.695L243.371 577.443C243.039 578.141 242.564 578.797 241.947 579.411C241.33 580.025 240.617 580.564 239.809 581.028C239.026 581.508 238.211 581.853 237.362 582.063ZM231.809 573.218L231.235 572.899L237.665 571.175L237.307 571.725C236.958 570.493 236.531 569.522 236.025 568.812C235.52 568.102 234.993 567.617 234.445 567.357C233.897 567.097 233.375 567.028 232.878 567.151C232.443 567.259 232.088 567.556 231.813 568.042C231.553 568.501 231.409 569.163 231.381 570.027C231.369 570.866 231.512 571.929 231.809 573.218Z" fill="#424242"/>
<circle cx="112.667" cy="541.328" r="14" transform="rotate(-13.9084 112.667 541.328)" stroke="#E07A5F" stroke-width="8"/>
<circle cx="127.089" cy="599.571" r="14" transform="rotate(-13.9084 127.089 599.571)" stroke="#E07A5F" stroke-width="8"/>
<circle cx="112.667" cy="541.329" r="5" transform="rotate(-13.9084 112.667 541.329)" fill="#E07A5F"/>
</g>
<defs>
<filter id="filter0_d_181_109" x="342.835" y="164.238" width="425.329" height="353.811" filterUnits="userSpaceOnUse" color-interpolation-filters="sRGB">
<feFlood flood-opacity="0" result="BackgroundImageFix"/>
<feColorMatrix in="SourceAlpha" type="matrix" values="0 0 0 0 0 0 0 0 0 0 0 0 0 0 0 0 0 0 127 0" result="hardAlpha"/>
<feOffset dx="18" dy="18"/>
<feGaussianBlur stdDeviation="9"/>
<feComposite in2="hardAlpha" operator="out"/>
<feColorMatrix type="matrix" values="0 0 0 0 0 0 0 0 0 0 0 0 0 0 0 0 0 0 0.25 0"/>
<feBlend mode="normal" in2="BackgroundImageFix" result="effect1_dropShadow_181_109"/>
<feBlend mode="normal" in="SourceGraphic" in2="effect1_dropShadow_181_109" result="shape"/>
</filter>
<filter id="filter1_d_181_109" x="7.43262" y="192.258" width="471.341" height="496.172" filterUnits="userSpaceOnUse" color-interpolation-filters="sRGB">
<feFlood flood-opacity="0" result="BackgroundImageFix"/>
<feColorMatrix in="SourceAlpha" type="matrix" values="0 0 0 0 0 0 0 0 0 0 0 0 0 0 0 0 0 0 127 0" result="hardAlpha"/>
<feOffset dx="18" dy="17"/>
<feGaussianBlur stdDeviation="9.5"/>
<feComposite in2="hardAlpha" operator="out"/>
<feColorMatrix type="matrix" values="0 0 0 0 0 0 0 0 0 0 0 0 0 0 0 0 0 0 0.25 0"/>
<feBlend mode="normal" in2="BackgroundImageFix" result="effect1_dropShadow_181_109"/>
<feBlend mode="normal" in="SourceGraphic" in2="effect1_dropShadow_181_109" result="shape"/>
</filter>
</defs>
</svg>
