<svg width="1440" height="1024" viewBox="0 0 1440 1024" fill="none" xmlns="http://www.w3.org/2000/svg">
<g clip-path="url(#clip0_183_80)">
<rect width="1440" height="1024" fill="#E07A5F"/>
<path d="M80.4 458.8C58 458.8 37.4667 455.333 18.8 448.4C0.133337 441.2 -16 431.2 -29.6 418.4C-42.9333 405.333 -53.3333 389.867 -60.8 372C-68.2667 354.133 -72 334.533 -72 313.2C-72 291.333 -68.2667 271.333 -60.8 253.2C-53.3333 235.067 -42.9333 219.467 -29.6 206.4C-16 193.067 5.24521e-06 182.8 18.4 175.6C37.0667 168.4 57.4667 164.933 79.6 165.2C91.3333 165.2 102.933 166.533 114.4 169.2C126.133 171.6 137.467 175.2 148.4 180C159.333 184.533 169.6 189.867 179.2 196V252.8H160.4C160.667 241.867 158.667 232.133 154.4 223.6C150.4 215.067 144.4 207.867 136.4 202C128.4 196.133 118.933 191.733 108 188.8C97.0667 185.6 84.9333 184 71.6 184C57.7333 184 45.3333 188.4 34.4 197.2C23.4667 205.733 14.8 217.6 8.4 232.8C2.26667 248 -0.799996 265.733 -0.799996 286C-0.799996 316.133 2.93334 342.8 10.4 366C17.8667 389.2 28.2667 407.333 41.6 420.4C54.9333 433.467 70.1333 440 87.2 440C100.8 440 113.067 437.067 124 431.2C135.2 425.333 144.133 417.333 150.8 407.2C157.467 396.8 160.667 384.8 160.4 371.2H179.2V428C169.6 433.867 159.333 439.2 148.4 444C137.733 448.8 126.533 452.4 114.8 454.8C103.333 457.467 91.8667 458.8 80.4 458.8ZM183.922 452V443.6L215.922 431.2L213.922 434V282.4L215.922 285.2L182.322 277.2V266.4L274.322 245.6L278.322 253.6L277.122 279.6H275.522L299.122 245.2C303.922 243.867 309.922 243.467 317.122 244C324.322 244.267 331.789 245.867 339.522 248.8C347.522 251.467 355.122 255.867 362.322 262L341.522 311.6C335.122 305.467 327.922 300.533 319.922 296.8C312.189 292.8 305.255 290.8 299.122 290.8C296.722 290.8 293.789 291.733 290.322 293.6C287.122 295.467 283.522 298.4 279.522 302.4C278.455 303.2 277.122 304.533 275.522 306.4C273.922 308.267 272.589 309.733 271.522 310.8L277.522 300.8V434L275.522 431.2L309.122 444V452H183.922ZM457.453 458.8C438.253 458.8 420.92 454.267 405.453 445.2C389.986 436.133 377.586 423.6 368.253 407.6C359.186 391.6 354.653 373.467 354.653 353.2C354.653 331.867 358.92 313.2 367.453 297.2C376.253 280.933 388.52 268.4 404.253 259.6C419.986 250.533 438.786 246 460.653 246C476.653 246 491.453 249.2 505.053 255.6C518.92 261.733 529.986 271.2 538.253 284C546.52 296.533 550.653 312.667 550.653 332.4C550.653 334.267 550.653 336.533 550.653 339.2C550.653 341.867 550.52 344.267 550.253 346.4H415.453L420.653 342.4C420.653 361.067 422.653 377.6 426.653 392C430.92 406.133 436.786 417.333 444.253 425.6C451.72 433.6 460.12 437.6 469.453 437.6C480.12 437.6 491.72 434.8 504.253 429.2C516.786 423.6 527.453 416.533 536.253 408L547.853 420.8C541.453 428 533.32 434.533 523.453 440.4C513.853 446 503.186 450.4 491.453 453.6C479.986 457.067 468.653 458.8 457.453 458.8ZM420.253 334L415.053 328.4L491.853 327.2L484.653 332.8C484.12 316.267 481.853 303.067 477.853 293.2C473.853 283.333 469.186 276.267 463.853 272C458.52 267.467 453.186 265.2 447.853 265.2C443.32 265.2 438.92 267.467 434.653 272C430.653 276.267 427.32 283.467 424.653 293.6C422.253 303.733 420.786 317.2 420.253 334ZM638.928 458.4C622.395 458.4 608.928 455.2 598.528 448.8C588.395 442.4 580.795 434.267 575.728 424.4C570.928 414.267 568.528 403.867 568.528 393.2C568.528 385.2 571.861 378 578.528 371.6C585.195 364.933 594.128 359.2 605.328 354.4C616.795 349.333 629.595 345.333 643.728 342.4C658.128 339.467 673.061 337.467 688.528 336.4L686.928 338.8V303.6C686.928 291.867 684.261 282.4 678.928 275.2C673.595 268 667.328 264.4 660.128 264.4C655.061 264.4 649.728 266 644.128 269.2C638.795 272.133 634.261 276.267 630.528 281.6C627.061 286.933 625.328 292.667 625.328 298.8C625.595 302 625.728 304.667 625.728 306.8C625.995 308.933 626.128 310.4 626.128 311.2L574.128 323.2C573.861 320.8 573.728 317.867 573.728 314.4C573.728 310.933 573.728 307.333 573.728 303.6C573.728 292.133 577.595 282.133 585.328 273.6C593.061 264.8 603.861 258 617.728 253.2C631.595 248.133 647.595 245.6 665.728 245.6C681.728 245.6 695.995 247.733 708.528 252C721.061 256.267 730.795 262.133 737.728 269.6C744.661 277.067 748.128 285.733 748.128 295.6V428.4L746.128 426.4L784.128 431.2V444L690.128 458L685.728 453.2L686.528 430.4L687.728 431.6C681.061 438.267 673.328 444.4 664.528 450C655.995 455.6 647.461 458.4 638.928 458.4ZM662.128 426.8C665.595 426.8 669.595 425.733 674.128 423.6C678.928 421.2 683.595 417.467 688.128 412.4L686.928 416V351.2L688.928 356.4C670.795 356.667 656.528 358.8 646.128 362.8C635.995 366.533 630.928 373.6 630.928 384C630.928 391.467 632.261 398.533 634.928 405.2C637.595 411.6 641.195 416.8 645.728 420.8C650.528 424.8 655.995 426.8 662.128 426.8ZM859.975 458.8C845.575 458.8 833.442 454.8 823.575 446.8C813.708 438.533 808.775 427.067 808.775 412.4V266L811.175 268H772.775L773.575 250.4H811.175L808.775 252.4V206L871.175 182.4V252.4L869.175 250.4H928.775V268H869.175L871.175 266V398.4C871.175 408 872.375 415.2 874.775 420C877.442 424.533 880.375 427.6 883.575 429.2C886.775 430.533 889.442 431.2 891.575 431.2C897.442 431.2 903.575 429.733 909.975 426.8C916.375 423.6 923.308 418.8 930.775 412.4L938.375 422C926.375 433.733 913.442 442.8 899.575 449.2C885.708 455.6 872.508 458.8 859.975 458.8ZM1032.67 458.8C1013.47 458.8 996.139 454.267 980.672 445.2C965.205 436.133 952.805 423.6 943.472 407.6C934.405 391.6 929.872 373.467 929.872 353.2C929.872 331.867 934.139 313.2 942.672 297.2C951.472 280.933 963.739 268.4 979.472 259.6C995.205 250.533 1014.01 246 1035.87 246C1051.87 246 1066.67 249.2 1080.27 255.6C1094.14 261.733 1105.21 271.2 1113.47 284C1121.74 296.533 1125.87 312.667 1125.87 332.4C1125.87 334.267 1125.87 336.533 1125.87 339.2C1125.87 341.867 1125.74 344.267 1125.47 346.4H990.672L995.872 342.4C995.872 361.067 997.872 377.6 1001.87 392C1006.14 406.133 1012.01 417.333 1019.47 425.6C1026.94 433.6 1035.34 437.6 1044.67 437.6C1055.34 437.6 1066.94 434.8 1079.47 429.2C1092.01 423.6 1102.67 416.533 1111.47 408L1123.07 420.8C1116.67 428 1108.54 434.533 1098.67 440.4C1089.07 446 1078.41 450.4 1066.67 453.6C1055.21 457.067 1043.87 458.8 1032.67 458.8ZM995.472 334L990.272 328.4L1067.07 327.2L1059.87 332.8C1059.34 316.267 1057.07 303.067 1053.07 293.2C1049.07 283.333 1044.41 276.267 1039.07 272C1033.74 267.467 1028.41 265.2 1023.07 265.2C1018.54 265.2 1014.14 267.467 1009.87 272C1005.87 276.267 1002.54 283.467 999.872 293.6C997.472 303.733 996.005 317.2 995.472 334ZM1156.18 528.8L1142.98 520.4L1179.38 439.6V458.4C1169.51 457.867 1161.11 454 1154.18 446.8C1147.24 439.333 1143.78 430.667 1143.78 420.8C1143.78 409.867 1147.51 400.8 1154.98 393.6C1162.71 386.133 1172.04 382.4 1182.98 382.4C1193.38 382.4 1202.18 386.133 1209.38 393.6C1216.58 400.8 1220.18 409.867 1220.18 420.8C1220.18 424.533 1219.24 429.067 1217.38 434.4C1215.51 439.733 1213.24 444.4 1210.58 448.4L1156.18 528.8ZM80.4 800.8C58 800.8 37.4667 797.333 18.8 790.4C0.133337 783.2 -16 773.2 -29.6 760.4C-42.9333 747.333 -53.3333 731.867 -60.8 714C-68.2667 696.133 -72 676.533 -72 655.2C-72 633.333 -68.2667 613.333 -60.8 595.2C-53.3333 577.067 -42.9333 561.467 -29.6 548.4C-16 535.067 5.24521e-06 524.8 18.4 517.6C37.0667 510.4 57.4667 506.933 79.6 507.2C91.3333 507.2 102.933 508.533 114.4 511.2C126.133 513.6 137.467 517.2 148.4 522C159.333 526.533 169.6 531.867 179.2 538V594.8H160.4C160.667 583.867 158.667 574.133 154.4 565.6C150.4 557.067 144.4 549.867 136.4 544C128.4 538.133 118.933 533.733 108 530.8C97.0667 527.6 84.9333 526 71.6 526C57.7333 526 45.3333 530.4 34.4 539.2C23.4667 547.733 14.8 559.6 8.4 574.8C2.26667 590 -0.799996 607.733 -0.799996 628C-0.799996 658.133 2.93334 684.8 10.4 708C17.8667 731.2 28.2667 749.333 41.6 762.4C54.9333 775.467 70.1333 782 87.2 782C100.8 782 113.067 779.067 124 773.2C135.2 767.333 144.133 759.333 150.8 749.2C157.467 738.8 160.667 726.8 160.4 713.2H179.2V770C169.6 775.867 159.333 781.2 148.4 786C137.733 790.8 126.533 794.4 114.8 796.8C103.333 799.467 91.8667 800.8 80.4 800.8ZM302.731 800.4C281.131 800.4 262.065 795.733 245.531 786.4C228.998 777.067 216.065 764.267 206.731 748C197.398 731.467 192.731 712.533 192.731 691.2C192.731 670.933 197.398 653.067 206.731 637.6C216.065 621.867 228.998 609.6 245.531 600.8C262.065 592 281.131 587.6 302.731 587.6C323.798 587.6 342.465 591.867 358.731 600.4C374.998 608.933 387.798 620.667 397.131 635.6C406.465 650.533 411.131 667.733 411.131 687.2C411.131 709.333 406.465 728.933 397.131 746C387.798 763.067 374.998 776.4 358.731 786C342.465 795.6 323.798 800.4 302.731 800.4ZM311.131 784.4C320.998 784.4 328.598 777.067 333.931 762.4C339.531 747.733 342.331 726.8 342.331 699.6C342.331 668.667 338.198 644.933 329.931 628.4C321.665 611.867 309.931 603.6 294.731 603.6C284.331 603.6 276.198 610.267 270.331 623.6C264.465 636.667 261.531 655.467 261.531 680C261.531 713.333 265.798 739.067 274.331 757.2C283.131 775.333 295.398 784.4 311.131 784.4ZM419.653 794V786L455.253 772.4L450.453 778.4V622.4L458.053 628.4L418.853 619.2V608.4L511.653 587.6L514.053 593.2V611.6L508.453 610.8C513.786 606.267 519.653 602.267 526.053 598.8C532.72 595.067 539.386 592.267 546.053 590.4C552.72 588.267 558.986 587.2 564.853 587.2C580.32 587.2 594.053 589.733 606.053 594.8C618.053 599.867 627.386 606.933 634.053 616C640.986 625.067 644.453 635.6 644.453 647.6V778.8L641.653 772.8L675.253 786V794H554.853V786L586.453 771.6L580.853 779.6V658.8C580.853 644.133 578.186 632.267 572.853 623.2C567.52 613.867 560.72 609.2 552.453 609.2C548.186 609.2 543.52 610.4 538.453 612.8C533.386 614.933 528.32 617.867 523.253 621.6C518.453 625.067 513.92 628.933 509.653 633.2L514.053 622V779.6L509.653 772L540.453 786V794H419.653ZM666.341 794V786L701.941 772.4L697.141 778.4V622.4L704.741 628.4L665.541 619.2V608.4L758.341 587.6L760.741 593.2V611.6L755.141 610.8C760.474 606.267 766.341 602.267 772.741 598.8C779.407 595.067 786.074 592.267 792.741 590.4C799.407 588.267 805.674 587.2 811.541 587.2C827.007 587.2 840.741 589.733 852.741 594.8C864.741 599.867 874.074 606.933 880.741 616C887.674 625.067 891.141 635.6 891.141 647.6V778.8L888.341 772.8L921.941 786V794H801.541V786L833.141 771.6L827.541 779.6V658.8C827.541 644.133 824.874 632.267 819.541 623.2C814.207 613.867 807.407 609.2 799.141 609.2C794.874 609.2 790.207 610.4 785.141 612.8C780.074 614.933 775.007 617.867 769.941 621.6C765.141 625.067 760.607 628.933 756.341 633.2L760.741 622V779.6L756.341 772L787.141 786V794H666.341ZM1025.83 800.8C1006.63 800.8 989.295 796.267 973.828 787.2C958.361 778.133 945.961 765.6 936.628 749.6C927.561 733.6 923.028 715.467 923.028 695.2C923.028 673.867 927.295 655.2 935.828 639.2C944.628 622.933 956.895 610.4 972.628 601.6C988.361 592.533 1007.16 588 1029.03 588C1045.03 588 1059.83 591.2 1073.43 597.6C1087.29 603.733 1098.36 613.2 1106.63 626C1114.89 638.533 1119.03 654.667 1119.03 674.4C1119.03 676.267 1119.03 678.533 1119.03 681.2C1119.03 683.867 1118.89 686.267 1118.63 688.4H983.828L989.028 684.4C989.028 703.067 991.028 719.6 995.028 734C999.295 748.133 1005.16 759.333 1012.63 767.6C1020.09 775.6 1028.49 779.6 1037.83 779.6C1048.49 779.6 1060.09 776.8 1072.63 771.2C1085.16 765.6 1095.83 758.533 1104.63 750L1116.23 762.8C1109.83 770 1101.69 776.533 1091.83 782.4C1082.23 788 1071.56 792.4 1059.83 795.6C1048.36 799.067 1037.03 800.8 1025.83 800.8ZM988.628 676L983.428 670.4L1060.23 669.2L1053.03 674.8C1052.49 658.267 1050.23 645.067 1046.23 635.2C1042.23 625.333 1037.56 618.267 1032.23 614C1026.89 609.467 1021.56 607.2 1016.23 607.2C1011.69 607.2 1007.29 609.467 1003.03 614C999.028 618.267 995.695 625.467 993.028 635.6C990.628 645.733 989.161 659.2 988.628 676ZM1232.09 800C1213.69 800 1197.29 795.733 1182.89 787.2C1168.76 778.667 1157.56 766.667 1149.29 751.2C1141.29 735.733 1137.29 717.733 1137.29 697.2C1137.29 676.667 1141.43 658.267 1149.69 642C1157.96 625.733 1169.29 612.667 1183.69 602.8C1198.36 592.933 1215.16 587.6 1234.09 586.8C1236.23 586.8 1241.96 587.2 1251.29 588C1260.63 588.533 1271.69 589.333 1284.49 590.4C1289.03 590.933 1293.03 591.467 1296.49 592C1299.96 592.267 1302.36 592.4 1303.69 592.4V659.2H1284.49C1284.23 648.8 1281.69 639.6 1276.89 631.6C1272.09 623.333 1265.56 616.933 1257.29 612.4C1249.29 607.6 1240.09 605.333 1229.69 605.6C1224.36 605.867 1219.43 609.467 1214.89 616.4C1210.63 623.067 1207.16 632.133 1204.49 643.6C1202.09 655.067 1200.89 668.267 1200.89 683.2C1200.89 701.6 1203.16 718 1207.69 732.4C1212.49 746.533 1218.89 757.6 1226.89 765.6C1235.16 773.6 1244.49 777.6 1254.89 777.6C1261.83 777.6 1269.69 775.6 1278.49 771.6C1287.29 767.6 1295.03 762.4 1301.69 756L1312.89 768.8C1305.16 777.867 1293.69 785.333 1278.49 791.2C1263.56 797.067 1248.09 800 1232.09 800ZM1401.01 800.8C1386.61 800.8 1374.47 796.8 1364.61 788.8C1354.74 780.533 1349.81 769.067 1349.81 754.4V608L1352.21 610H1313.81L1314.61 592.4H1352.21L1349.81 594.4V548L1412.21 524.4V594.4L1410.21 592.4H1469.81V610H1410.21L1412.21 608V740.4C1412.21 750 1413.41 757.2 1415.81 762C1418.47 766.533 1421.41 769.6 1424.61 771.2C1427.81 772.533 1430.47 773.2 1432.61 773.2C1438.47 773.2 1444.61 771.733 1451.01 768.8C1457.41 765.6 1464.34 760.8 1471.81 754.4L1479.41 764C1467.41 775.733 1454.47 784.8 1440.61 791.2C1426.74 797.6 1413.54 800.8 1401.01 800.8ZM1501.3 870.8L1488.1 862.4L1524.5 781.6V800.4C1514.63 799.867 1506.23 796 1499.3 788.8C1492.37 781.333 1488.9 772.667 1488.9 762.8C1488.9 751.867 1492.63 742.8 1500.1 735.6C1507.83 728.133 1517.17 724.4 1528.1 724.4C1538.5 724.4 1547.3 728.133 1554.5 735.6C1561.7 742.8 1565.3 751.867 1565.3 762.8C1565.3 766.533 1564.37 771.067 1562.5 776.4C1560.63 781.733 1558.37 786.4 1555.7 790.4L1501.3 870.8ZM80.4 1142.8C58 1142.8 37.4667 1139.33 18.8 1132.4C0.133337 1125.2 -16 1115.2 -29.6 1102.4C-42.9333 1089.33 -53.3333 1073.87 -60.8 1056C-68.2667 1038.13 -72 1018.53 -72 997.2C-72 975.333 -68.2667 955.333 -60.8 937.2C-53.3333 919.067 -42.9333 903.467 -29.6 890.4C-16 877.067 5.24521e-06 866.8 18.4 859.6C37.0667 852.4 57.4667 848.933 79.6 849.2C91.3333 849.2 102.933 850.533 114.4 853.2C126.133 855.6 137.467 859.2 148.4 864C159.333 868.533 169.6 873.867 179.2 880V936.8H160.4C160.667 925.867 158.667 916.133 154.4 907.6C150.4 899.067 144.4 891.867 136.4 886C128.4 880.133 118.933 875.733 108 872.8C97.0667 869.6 84.9333 868 71.6 868C57.7333 868 45.3333 872.4 34.4 881.2C23.4667 889.733 14.8 901.6 8.4 916.8C2.26667 932 -0.799996 949.733 -0.799996 970C-0.799996 1000.13 2.93334 1026.8 10.4 1050C17.8667 1073.2 28.2667 1091.33 41.6 1104.4C54.9333 1117.47 70.1333 1124 87.2 1124C100.8 1124 113.067 1121.07 124 1115.2C135.2 1109.33 144.133 1101.33 150.8 1091.2C157.467 1080.8 160.667 1068.8 160.4 1055.2H179.2V1112C169.6 1117.87 159.333 1123.2 148.4 1128C137.733 1132.8 126.533 1136.4 114.8 1138.8C103.333 1141.47 91.8667 1142.8 80.4 1142.8ZM184.694 1136V1128L217.094 1115.2L215.094 1118V849.6L217.094 852.4L183.494 844.4V833.6L276.294 812.8L279.494 820.8L278.694 848.8V949.2L277.494 948C285.494 942.4 294.027 937.867 303.094 934.4C312.427 930.933 320.96 929.2 328.694 929.2C344.427 929.2 358.294 931.733 370.294 936.8C382.56 941.867 392.027 948.933 398.694 958C405.627 967.067 409.094 977.6 409.094 989.6V1118L407.094 1115.2L439.894 1128V1136H319.494V1127.2L347.494 1115.2L345.494 1118V1000.8C345.494 986.133 342.694 974.133 337.094 964.8C331.76 955.467 324.827 950.8 316.294 950.8C310.694 950.8 304.294 952.667 297.094 956.4C290.16 960.133 283.627 964.667 277.494 970L278.694 966.8V1118L276.694 1115.2L304.694 1127.2V1136H184.694ZM511.381 1142.4C494.848 1142.4 481.381 1139.2 470.981 1132.8C460.848 1126.4 453.248 1118.27 448.181 1108.4C443.381 1098.27 440.981 1087.87 440.981 1077.2C440.981 1069.2 444.315 1062 450.981 1055.6C457.648 1048.93 466.581 1043.2 477.781 1038.4C489.248 1033.33 502.048 1029.33 516.181 1026.4C530.581 1023.47 545.515 1021.47 560.981 1020.4L559.381 1022.8V987.6C559.381 975.867 556.715 966.4 551.381 959.2C546.048 952 539.781 948.4 532.581 948.4C527.515 948.4 522.181 950 516.581 953.2C511.248 956.133 506.715 960.267 502.981 965.6C499.515 970.933 497.781 976.667 497.781 982.8C498.048 986 498.181 988.667 498.181 990.8C498.448 992.933 498.581 994.4 498.581 995.2L446.581 1007.2C446.315 1004.8 446.181 1001.87 446.181 998.4C446.181 994.933 446.181 991.333 446.181 987.6C446.181 976.133 450.048 966.133 457.781 957.6C465.515 948.8 476.315 942 490.181 937.2C504.048 932.133 520.048 929.6 538.181 929.6C554.181 929.6 568.448 931.733 580.981 936C593.515 940.267 603.248 946.133 610.181 953.6C617.115 961.067 620.581 969.733 620.581 979.6V1112.4L618.581 1110.4L656.581 1115.2V1128L562.581 1142L558.181 1137.2L558.981 1114.4L560.181 1115.6C553.515 1122.27 545.781 1128.4 536.981 1134C528.448 1139.6 519.915 1142.4 511.381 1142.4ZM534.581 1110.8C538.048 1110.8 542.048 1109.73 546.581 1107.6C551.381 1105.2 556.048 1101.47 560.581 1096.4L559.381 1100V1035.2L561.381 1040.4C543.248 1040.67 528.981 1042.8 518.581 1046.8C508.448 1050.53 503.381 1057.6 503.381 1068C503.381 1075.47 504.715 1082.53 507.381 1089.2C510.048 1095.6 513.648 1100.8 518.181 1104.8C522.981 1108.8 528.448 1110.8 534.581 1110.8ZM647.591 1136V1128L683.191 1114.4L678.391 1120.4V964.4L685.991 970.4L646.791 961.2V950.4L739.591 929.6L741.991 935.2V953.6L736.391 952.8C741.724 948.267 747.591 944.267 753.991 940.8C760.657 937.067 767.324 934.267 773.991 932.4C780.657 930.267 786.924 929.2 792.791 929.2C808.257 929.2 821.991 931.733 833.991 936.8C845.991 941.867 855.324 948.933 861.991 958C868.924 967.067 872.391 977.6 872.391 989.6V1120.8L869.591 1114.8L903.191 1128V1136H782.791V1128L814.391 1113.6L808.791 1121.6V1000.8C808.791 986.133 806.124 974.267 800.791 965.2C795.457 955.867 788.657 951.2 780.391 951.2C776.124 951.2 771.457 952.4 766.391 954.8C761.324 956.933 756.257 959.867 751.191 963.6C746.391 967.067 741.857 970.933 737.591 975.2L741.991 964V1121.6L737.591 1114L768.391 1128V1136H647.591ZM998.688 1223.2C978.954 1223.2 961.488 1220.93 946.288 1216.4C931.354 1212.13 919.621 1206 911.088 1198C902.554 1190 898.288 1180.8 898.288 1170.4C898.288 1164.53 900.554 1157.07 905.088 1148C909.621 1138.93 916.421 1129.6 925.488 1120V1124.8C919.621 1120 914.954 1114.13 911.488 1107.2C908.021 1100 906.288 1092.13 906.288 1083.6C906.288 1078.27 907.488 1073.2 909.888 1068.4C912.554 1063.33 915.754 1058.93 919.488 1055.2C923.488 1051.2 927.488 1048.27 931.488 1046.4L931.888 1048C925.754 1041.87 920.688 1034.27 916.688 1025.2C912.954 1016.13 911.088 1007.47 911.088 999.2C911.088 985.6 915.088 973.6 923.088 963.2C931.354 952.533 942.554 944.267 956.688 938.4C971.088 932.267 987.621 929.2 1006.29 929.2C1014.02 929.2 1022.55 930.133 1031.89 932C1041.22 933.867 1049.89 936.533 1057.89 940L1056.29 939.6L1117.09 934.8V953.6L1114.29 957.6L1075.49 954.4L1077.09 953.6C1081.89 958.133 1085.62 964 1088.29 971.2C1090.95 978.133 1092.29 984.933 1092.29 991.6C1092.29 1006.8 1088.29 1020.27 1080.29 1032C1072.55 1043.73 1061.62 1052.93 1047.49 1059.6C1033.35 1066.27 1016.95 1069.6 998.288 1069.6C991.088 1069.6 983.488 1068.93 975.488 1067.6C967.754 1066.27 961.088 1064.4 955.488 1062V1062.4C954.421 1063.47 953.354 1064.93 952.288 1066.8C951.488 1068.4 950.688 1070.13 949.888 1072C949.354 1073.6 949.088 1075.07 949.088 1076.4C949.088 1080.67 950.954 1084.13 954.688 1086.8C958.688 1089.2 963.754 1090.4 969.888 1090.4H1053.89C1069.62 1090.4 1082.42 1094.67 1092.29 1103.2C1102.15 1111.47 1107.09 1121.87 1107.09 1134.4C1107.09 1151.73 1102.55 1167.07 1093.49 1180.4C1084.42 1193.73 1071.75 1204.13 1055.49 1211.6C1039.22 1219.33 1020.29 1223.2 998.688 1223.2ZM1004.69 1206.8C1017.22 1206.8 1028.42 1204.93 1038.29 1201.2C1048.42 1197.47 1056.42 1192.13 1062.29 1185.2C1068.15 1178.27 1071.09 1170.27 1071.09 1161.2C1071.09 1154.53 1069.09 1149.73 1065.09 1146.8C1061.09 1143.87 1055.75 1142 1049.09 1141.2C1042.69 1140.4 1035.35 1140 1027.09 1140H969.488C965.221 1140 960.421 1139.33 955.088 1138C950.021 1136.93 945.754 1135.33 942.288 1133.2L951.488 1132.8C945.088 1138.13 940.954 1143.87 939.088 1150C937.488 1156.13 936.688 1161.87 936.688 1167.2C936.688 1176.27 940.021 1183.73 946.688 1189.6C953.621 1195.47 962.288 1199.73 972.688 1202.4C983.088 1205.33 993.754 1206.8 1004.69 1206.8ZM1003.09 1050.8C1011.35 1050.8 1017.62 1046.93 1021.89 1039.2C1026.42 1031.47 1028.69 1020 1028.69 1004.8C1028.69 985.867 1026.15 971.733 1021.09 962.4C1016.29 952.8 1008.82 948 998.688 948C991.754 948 986.288 951.733 982.288 959.2C978.554 966.667 976.688 977.867 976.688 992.8C976.688 1012 978.954 1026.53 983.488 1036.4C988.021 1046 994.554 1050.8 1003.09 1050.8ZM1229.55 1142.8C1210.35 1142.8 1193.01 1138.27 1177.55 1129.2C1162.08 1120.13 1149.68 1107.6 1140.35 1091.6C1131.28 1075.6 1126.75 1057.47 1126.75 1037.2C1126.75 1015.87 1131.01 997.2 1139.55 981.2C1148.35 964.933 1160.61 952.4 1176.35 943.6C1192.08 934.533 1210.88 930 1232.75 930C1248.75 930 1263.55 933.2 1277.15 939.6C1291.01 945.733 1302.08 955.2 1310.35 968C1318.61 980.533 1322.75 996.667 1322.75 1016.4C1322.75 1018.27 1322.75 1020.53 1322.75 1023.2C1322.75 1025.87 1322.61 1028.27 1322.35 1030.4H1187.55L1192.75 1026.4C1192.75 1045.07 1194.75 1061.6 1198.75 1076C1203.01 1090.13 1208.88 1101.33 1216.35 1109.6C1223.81 1117.6 1232.21 1121.6 1241.55 1121.6C1252.21 1121.6 1263.81 1118.8 1276.35 1113.2C1288.88 1107.6 1299.55 1100.53 1308.35 1092L1319.95 1104.8C1313.55 1112 1305.41 1118.53 1295.55 1124.4C1285.95 1130 1275.28 1134.4 1263.55 1137.6C1252.08 1141.07 1240.75 1142.8 1229.55 1142.8ZM1192.35 1018L1187.15 1012.4L1263.95 1011.2L1256.75 1016.8C1256.21 1000.27 1253.95 987.067 1249.95 977.2C1245.95 967.333 1241.28 960.267 1235.95 956C1230.61 951.467 1225.28 949.2 1219.95 949.2C1215.41 949.2 1211.01 951.467 1206.75 956C1202.75 960.267 1199.41 967.467 1196.75 977.6C1194.35 987.733 1192.88 1001.2 1192.35 1018Z" fill="#CF6D53"/>
</g>
<defs>
<clipPath id="clip0_183_80">
<rect width="1440" height="1024" fill="white"/>
</clipPath>
</defs>
</svg>
